<svg xmlns="http://www.w3.org/2000/svg" xmlns:xlink="http://www.w3.org/1999/xlink" version="1.1" x="0px" y="0px" viewBox="0 0 197.499 244.503" style="enable-background:new 0 0 197.499 244.503;" xml:space="preserve"><g><path d="M101.693,168.997l-0.688,0.074c-5.179,0.563-9.434,4.23-10.748,9.271l-13.185,50.499   c-1.744,6.681,2.258,13.509,8.938,15.253c1.059,0.276,2.122,0.409,3.168,0.409c5.549,0,10.616-3.725,12.085-9.346l0.431-1.65   v10.165h14.947v-51.148l28.677-3.108c7.603,0.082,15.473-2.585,19.613-14.912c5.489-21.682,5.771-34.891,1.68-55.785   c-3.061-15.178-14.72-21.403-23.461-20.418c-3.049,0.344-5.677,1.946-7.743,4.319c6.355,3.997,12.336,4.958,12.402,4.968   c5.484,0.747,9.325,5.777,8.605,11.221c-0.654,4.954-4.911,8.692-9.903,8.692c-0.443,0-0.887-0.031-1.324-0.089   c-2.149-0.314-7.608-1.366-14.406-4.577c0.807,12.253,2.254,28.504-0.218,43.034l-13.922,1.508v-15.654h6.901v-10.945H16.652   v10.945h6.902v91.949h14.945v-77.895h63.194L101.693,168.997z"></path><ellipse transform="matrix(0.9739 -0.2268 0.2268 0.9739 -12.3665 34.8595)" cx="145.506" cy="71.242" rx="22.495" ry="22.494"></ellipse><path d="M146.51,125.5c3.951,0,7.389-2.93,7.92-6.953c0.578-4.369-2.487-8.378-6.847-8.974c-0.004-0.001-0.014-0.002-0.036-0.005   v0.002c-0.621-0.081-6.876-1.242-13.364-5.359c-0.932-0.591-1.868-1.242-2.793-1.96c-3.802-2.935-7.474-6.899-10.283-12.521   c-2.799-5.628-4.787-12.997-4.795-23c0-3.116,0.196-6.483,0.63-10.116c0.523-4.387-2.609-8.369-6.996-8.892   c-4.387-0.523-8.367,2.609-8.89,6.997c-0.505,4.225-0.744,8.224-0.744,12.012c-0.01,12.536,2.65,22.796,6.864,30.905   c6.25,12.066,15.694,19.057,23.434,22.896c0.092,0.045,0.186,0.096,0.277,0.141c7.827,3.833,13.982,4.672,14.563,4.758   C145.807,125.477,146.161,125.5,146.51,125.5z"></path><path d="M186.695,107.938c-5.42,28.411-7.541,57.285-6.395,86.062h-51.134v11h2.333v38.666h11v-14h40.92   c0.631,4.676,1.328,9.345,2.133,14h11.173c-7.889-44.219-7.648-89.52,0.773-133.666   C193.898,109.313,190.296,108.626,186.695,107.938z M142.499,223.666V205h38.411c0.429,6.232,1.012,12.455,1.749,18.666H142.499z"></path><rect x="49.666" y="137.396" width="35.334" height="2.5"></rect><path d="M85.5,84.5c-10-8.5-7.327-20.228-3.074-24.013C89.634,54.072,94,45.682,94,36.5C94,16.342,72.957,0,47,0S0,16.342,0,36.5   S21.042,73,47,73C54.157,73,79.428,86.722,85.5,84.5z"></path></g></svg>