<svg xmlns="http://www.w3.org/2000/svg" xmlns:xlink="http://www.w3.org/1999/xlink" version="1.1" x="0px" y="0px" viewBox="0 0 72 72" enable-background="new 0 0 72 72" xml:space="preserve"><g><path fill="#000000" d="M24.6,14h22.8c2.8,0,5.1-2.4,4.9-5.2c-0.2-2.6-2.5-4.6-5.1-4.6h-4.7c-0.5,0-1-0.3-1.3-0.7   c-1.1-1.8-3-2.9-5.2-2.9s-4.2,1.2-5.2,2.9c-0.3,0.5-0.8,0.7-1.3,0.7h-4.7c-2.6,0-4.9,2-5.1,4.6C19.5,11.6,21.8,14,24.6,14z"></path><path fill="#000000" d="M61.2,9.7h-5.6c-0.2,0-0.4,0.1-0.4,0.3c-0.2,1.6-0.9,3.2-2.1,4.4c-1.5,1.6-3.6,2.5-5.8,2.5H24.6   c-2.2,0-4.3-0.9-5.8-2.5c-1.1-1.2-1.9-2.8-2.1-4.4c0-0.2-0.2-0.3-0.4-0.3h-5.6c-0.2,0-0.4,0.2-0.4,0.4v61c0,0.2,0.2,0.4,0.4,0.4   h50.4c0.2,0,0.4-0.2,0.4-0.4v-61C61.6,9.9,61.4,9.7,61.2,9.7z M29.1,61.4c0,1-0.8,1.7-1.7,1.7H18c-1,0-1.7-0.8-1.7-1.7v-9.9   c0-1,0.8-1.7,1.7-1.7h9.3c1,0,1.7,0.8,1.7,1.7V61.4z M29.1,37.7c0,1-0.8,1.7-1.7,1.7H18c-1,0-1.7-0.8-1.7-1.7v-9.9   c0-1,0.8-1.7,1.7-1.7h9.3c1,0,1.7,0.8,1.7,1.7V37.7z M54.2,58H33.3c-0.8,0-1.5-0.7-1.5-1.5s0.7-1.5,1.5-1.5h20.9   c0.8,0,1.5,0.7,1.5,1.5S55,58,54.2,58z M54.2,34.2H33.3c-0.8,0-1.5-0.7-1.5-1.5c0-0.8,0.7-1.5,1.5-1.5h20.9c0.8,0,1.5,0.7,1.5,1.5   C55.7,33.5,55,34.2,54.2,34.2z"></path><path fill="#000000" d="M25.8,29.2L21,32.6c-0.2,0.1-0.5,0.1-0.6-0.2L19.9,31c-0.3-0.7-1-1.2-1.7-1c-0.9,0.2-1.4,1.2-1.1,2l1.4,3.8   c0.2,0.4,0.5,0.8,1,0.9c0.1,0,0.3,0.1,0.4,0.1c0.3,0,0.6-0.1,0.9-0.3l6.8-4.8c0.7-0.5,0.8-1.4,0.4-2.1   C27.4,28.9,26.5,28.8,25.8,29.2z"></path><path fill="#000000" d="M25.8,53.1l-4.7,3.3c-0.3,0.2-0.6,0.1-0.7-0.2l-0.5-1.4c-0.3-0.7-1-1.2-1.7-1c-0.9,0.2-1.4,1.2-1.1,2   l1.4,3.8c0.2,0.4,0.5,0.8,1,0.9c0.1,0,0.3,0.1,0.4,0.1c0.3,0,0.6-0.1,0.9-0.3l6.8-4.8c0.7-0.5,0.8-1.4,0.4-2.1   C27.4,52.8,26.5,52.6,25.8,53.1z"></path></g></svg>