<svg xmlns:dc="http://purl.org/dc/elements/1.1/" xmlns:cc="http://creativecommons.org/ns#" xmlns:rdf="http://www.w3.org/1999/02/22-rdf-syntax-ns#" xmlns:svg="http://www.w3.org/2000/svg" xmlns="http://www.w3.org/2000/svg" xmlns:sodipodi="http://sodipodi.sourceforge.net/DTD/sodipodi-0.dtd" xmlns:inkscape="http://www.inkscape.org/namespaces/inkscape" version="1.1" x="0px" y="0px" viewBox="0 0 100 100"><g transform="translate(0,-952.36218)"><path style="text-indent:0;text-transform:none;direction:ltr;block-progression:tb;baseline-shift:baseline;color:#000000;enable-background:accumulate;" d="m 50,965.36215 c -7.158,0 -14.3549,2.72997 -19.8125,8.1875 -4.0587,4.05867 -6.5192,9.0935 -7.5625,14.34375 -10.5909,2.05454 -18.6249999,11.30392 -18.6249999,22.4687 0,12.667 10.3329999,23.0001 22.9999999,23.0001 l 11,0 a 3.0003,3.0003 0 1 0 0,-6 l -11,0 c -9.4242,0 -17.0000001,-7.5758 -17.0000001,-17.0001 0,-8.8998 6.7685001,-16.15038 15.4375001,-16.93745 a 3.0003,3.0003 0 0 0 2.6875,-2.625 c 0.552,-4.75509 2.6561,-9.37488 6.3125,-13.03125 4.3056,-4.30547 9.9243,-6.40625 15.5625,-6.40625 5.6382,0 11.2215,2.09633 15.5312,6.40625 4.9804,4.98032 7.0879,11.74679 6.3126,18.21872 a 3.0003,3.0003 0 0 0 2.9687,3.375 l 1.1875,0 c 7.8079,0 14,6.19208 14,14.00008 0,7.8079 -6.1921,14 -14,14 l -14,0 a 3.0003,3.0003 0 1 0 0,6 l 14,0 c 11.0281,0 20,-8.9719 20,-20 0,-10.4082 -8.0182,-18.88118 -18.1875,-19.81255 0.047,-7.23903 -2.5242,-14.49301 -8.0313,-20 C 64.3284,968.09657 57.158,965.36215 50,965.36215 z m 0,33.99997 c -1.0002,0 -1.5291,0.3219 -2.0312,0.78128 l -11,10 c -1.2702,1.1788 -1.2479,3.0919 -0.1876,4.25 1.0604,1.1581 3.0866,1.2419 4.25,0.1875 l 5.9688,-5.4375 0,27.2188 c 0,1.6568 1.3429,3 3,3 1.6572,0 3,-1.3432 3,-3 l 0,-27.2188 5.9688,5.4375 c 1.1635,1.0544 3.1284,0.9115 4.25,-0.1875 1.1819,-1.1581 0.9654,-3.1841 -0.1876,-4.25 l -11,-10 C 51.4369,999.59932 51.0002,999.36212 50,999.36212 z" fill="#000000" fill-opacity="1" stroke="none" marker="none" visibility="visible" display="inline" overflow="visible"></path></g></svg>