<svg xmlns="http://www.w3.org/2000/svg" xmlns:xlink="http://www.w3.org/1999/xlink" version="1.1" x="0px" y="0px" viewBox="0, 0, 100, 100"><g transform="translate(0, 0)"><g><g><path d="M96.9,38.6 C96.9,43.571 92.871,47.6 87.9,47.6 C84.639,47.514 81.191,45.742 79.867,42.608 L82.805,41.67 C83.679,43.683 85.926,44.401 87.9,44.6 C91.214,44.6 93.9,41.914 93.9,38.6 C93.834,36.574 92.924,34.818 91.255,33.625 C90.792,33.294 90.206,33.184 89.682,32.963 L89.109,32.722 L87.9,32.6 C87.497,32.641 87.094,32.681 86.691,32.722 C86.688,32.723 86.685,32.725 86.682,32.726 L86.682,32.726 C83.735,33.587 82.202,35.604 81.9,38.6 L81.921,38.803 L81.921,38.803 C82.089,40.479 81.891,39.499 82.805,41.67 L79.867,42.608 L59.443,49.128 C59.264,48.223 59.354,48.687 59.176,47.736 C59.354,48.687 59.264,48.223 59.443,49.128 L59.443,49.128 C59.515,49.481 59.453,49.162 59.5,50.1 L59.5,50.1 C59.5,55.071 55.471,59.1 50.5,59.1 C47.081,59.106 44.59,57.112 42.653,54.489 L42.653,54.489 L42.653,54.488 L21.334,61.294 L18.441,62.218 C18.385,61.059 18.111,60.308 17.424,59.394 L17.424,59.394 C16.163,57.67 14.541,57.006 12.5,56.8 C9.186,56.8 6.5,59.486 6.5,62.8 C6.563,64.836 7.484,66.569 9.145,67.775 C9.572,68.085 10.116,68.184 10.601,68.388 L10.658,71.566 C6.367,70.787 3.711,66.981 3.5,62.8 C3.5,57.83 7.529,53.8 12.5,53.8 C15.94,53.792 18.431,55.814 20.374,58.452 L20.374,58.452 L41.675,51.651 L41.676,51.655 L41.675,51.652 L41.576,51.175 C41.504,50.494 41.532,50.853 41.5,50.1 C41.5,45.13 45.529,41.1 50.5,41.1 C53.875,41.178 57.247,43.048 58.599,46.249 L58.599,46.249 L58.825,46.776 L58.599,46.248 L78.991,39.738 C78.902,39.367 78.915,38.979 78.9,38.6 C78.96,33.909 82.262,30.609 86.682,29.707 L86.682,24.093 C82.618,23.483 79.849,20.544 79.044,16.6 L82.102,16.6 C83.046,19.507 84.023,19.955 86.682,21.075 L86.686,21.076 L86.691,21.078 C87.094,21.119 87.497,21.16 87.9,21.2 C89.315,21.057 88.736,21.235 89.682,20.837 C92.365,20.028 93.631,17.867 93.9,15.2 C93.9,11.886 91.214,9.2 87.9,9.2 C85.887,9.272 84.099,10.165 82.925,11.845 C82.561,12.366 82.433,13.015 82.186,13.6 C81.913,14.095 81.949,14.655 81.9,15.2 C82.029,16.478 81.865,16.036 82.102,16.6 L58.856,16.6 C58.131,21.09 54.433,23.976 50,24.2 C45.438,24.137 42.032,20.952 41.144,16.6 L21.356,16.6 C21.401,16.416 21.416,16.315 21.356,16.6 L21.356,16.6 C20.631,21.09 16.933,23.976 12.5,24.2 C7.938,24.137 4.532,20.952 3.644,16.6 L0,16.6 L0,13.6 L3.685,13.6 L4.101,12.027 C5.729,8.354 8.639,6.687 12.5,6.2 C16.919,6.268 20.443,9.324 21.315,13.6 L21.315,13.6 L21.315,13.6 L41.185,13.6 L41.601,12.027 C43.229,8.354 46.139,6.687 50,6.2 C54.419,6.268 57.943,9.324 58.815,13.6 L58.815,13.6 L79.085,13.6 C79.97,9.071 83.567,6.746 87.9,6.2 C92.871,6.2 96.9,10.23 96.9,15.2 C96.828,19.486 93.887,23.12 89.682,23.978 L89.682,29.822 L91.223,30.248 C94.812,31.902 96.427,34.803 96.9,38.6 z M18.5,15.2 C18.364,13.85 18.535,14.364 18.214,13.6 L18.214,13.6 C17.391,10.831 15.273,9.48 12.5,9.2 C10.487,9.272 8.699,10.165 7.525,11.845 C7.161,12.366 7.033,13.015 6.786,13.6 C6.465,14.364 6.636,13.85 6.5,15.2 C6.629,16.478 6.465,16.036 6.702,16.6 C7.543,19.463 9.61,20.909 12.5,21.2 C14.499,21.124 16.32,20.245 17.475,18.555 C17.874,17.971 18.024,17.252 18.298,16.6 L18.298,16.6 L18.412,16.323 C18.456,15.95 18.467,15.574 18.5,15.2 z M21.329,61.266 C21.159,60.397 21.259,60.779 21.056,60.113 C21.256,60.78 21.156,60.398 21.329,61.266 z M21.477,15.766 L21.448,16.095 C21.466,15.964 21.451,16.073 21.477,15.766 z M42.142,53.425 L41.87,52.54 C41.918,52.848 42.006,53.145 42.142,53.425 z M56,15.2 C55.864,13.85 56.035,14.364 55.714,13.6 C54.891,10.831 52.773,9.48 50,9.2 C47.987,9.272 46.199,10.165 45.025,11.845 C44.661,12.366 44.533,13.015 44.286,13.6 L44.286,13.6 C43.965,14.364 44.136,13.85 44,15.2 C44.129,16.478 43.965,16.036 44.202,16.6 C45.043,19.463 47.11,20.909 50,21.2 C51.999,21.124 53.82,20.245 54.975,18.555 C55.374,17.971 55.524,17.252 55.798,16.6 L55.798,16.6 L55.911,16.323 C55.956,15.95 55.967,15.575 56,15.2 L56,15.2 z M56.5,50.1 L56.497,50.069 L56.497,50.069 C56.316,48.278 56.531,49.255 55.661,47.187 L55.661,47.187 L55.28,46.459 C54.134,44.835 52.332,44.423 50.5,44.1 C47.186,44.1 44.5,46.786 44.5,50.1 L44.563,50.729 C44.594,51.81 44.971,52.699 45.613,53.543 L45.614,53.543 C46.859,55.249 48.483,55.897 50.5,56.1 C53.814,56.1 56.5,53.414 56.5,50.1 z M58.977,15.766 L58.948,16.095 C58.966,15.964 58.951,16.073 58.977,15.766 z M78.953,14.353 C78.942,14.411 78.946,14.38 78.942,14.446 L78.953,14.353 z M89.031,29.69 L88.82,29.647 L88.588,29.635 L89.031,29.69 z M89.682,23.978 L89.087,24.103 C89.286,24.069 89.485,24.021 89.682,23.978 z" fill="#000000"></path><path d="M97.15,38.6 C97.15,43.709 93.009,47.85 87.893,47.85 C84.428,47.697 81.379,46.001 79.745,42.909 L59.726,49.3 L59.731,49.397 C59.733,49.689 59.729,49.587 59.734,49.705 L59.75,49.697 L59.75,50.1 C59.75,55.209 55.609,59.35 50.5,59.35 C47.093,59.353 44.59,57.315 42.567,54.778 L21.41,61.532 L18.517,62.456 L18.208,62.555 L18.192,62.23 C18.138,61.125 17.884,60.421 17.222,59.541 C16.089,57.992 14.63,57.266 12.5,57.05 C9.324,57.05 6.75,59.625 6.75,62.792 C6.81,64.751 7.693,66.413 9.292,67.573 C9.501,67.725 9.701,67.809 10.182,67.97 C10.441,68.057 10.556,68.098 10.698,68.158 L10.849,68.221 L10.851,68.384 L10.908,71.561 L10.914,71.866 L10.614,71.812 C6.386,71.045 3.478,67.32 3.25,62.8 C3.25,57.692 7.391,53.55 12.499,53.55 C15.924,53.547 18.433,55.611 20.462,58.161 L41.385,51.482 L41.327,51.201 C41.334,51.264 41.278,50.748 41.274,50.681 C41.27,50.627 41.257,50.269 41.25,50.1 C41.25,44.992 45.391,40.85 50.506,40.85 C54.054,40.989 57.076,42.798 58.722,45.947 L78.709,39.566 C78.664,39.304 78.69,39.486 78.661,39.019 C78.659,38.934 78.659,38.934 78.657,38.851 C78.654,38.729 78.653,38.676 78.65,38.597 C78.808,33.811 82.031,30.76 86.432,29.519 L86.432,24.291 C82.395,23.609 79.901,20.64 78.855,16.85 L59.05,16.85 C58.163,21.508 54.424,23.882 49.997,24.45 C45.311,24.285 42.198,21.189 40.957,16.85 L21.55,16.85 C20.663,21.508 16.924,23.882 12.497,24.45 C7.811,24.285 4.698,21.189 3.457,16.85 L0,16.85 L-0.25,16.85 L-0.25,13.35 L3.493,13.35 L3.873,11.926 C5.456,8.352 8.282,6.48 12.504,5.95 C17.081,6.125 20.26,9.08 21.502,13.35 L40.993,13.35 L41.373,11.926 C42.956,8.352 45.782,6.48 50.004,5.95 C54.581,6.125 57.76,9.08 59.002,13.35 L78.896,13.35 C79.87,8.782 83.646,6.737 87.9,5.95 C93.009,5.95 97.15,10.092 97.15,15.204 C96.967,19.682 94.138,22.922 89.932,24.164 L89.932,29.632 L91.328,30.021 C94.812,31.627 96.633,34.438 97.148,38.569 L97.15,38.6 z M96.65,15.2 C96.65,10.368 92.732,6.45 87.931,6.448 C83.323,7.029 80.136,9.525 79.331,13.648 L79.291,13.85 L79.085,13.85 L58.816,13.85 L58.815,13.85 L58.611,13.85 L58.57,13.65 C57.713,9.446 54.255,6.516 50.031,6.448 C46.009,6.955 43.338,8.725 41.843,12.091 L41.427,13.664 L41.378,13.85 L41.185,13.85 L21.415,13.85 L21.16,14.094 L21.111,13.85 L21.065,13.85 L21.065,13.633 C20.099,9.313 16.788,6.879 12.531,6.448 C8.509,6.955 5.838,8.725 4.343,12.091 L3.927,13.664 L3.878,13.85 L0.25,13.85 L0.25,16.35 L3.645,16.35 L3.849,16.35 L3.889,16.55 C4.778,20.905 8.171,23.89 12.487,23.95 C16.83,23.661 19.995,20.985 21.048,16.802 L21.11,16.551 L21.143,16.35 L21.158,16.35 C21.158,16.348 21.159,16.347 21.16,16.345 C21.174,16.317 21.189,16.29 21.204,16.262 L21.547,16.35 L41.144,16.35 L41.349,16.35 L41.389,16.55 C42.278,20.905 45.671,23.89 49.987,23.95 C54.436,23.726 57.923,20.813 58.609,16.56 L58.643,16.35 L58.856,16.35 L81.741,16.35 C81.707,16.241 81.718,16.298 81.711,16.178 C81.71,16.173 81.707,15.983 81.703,15.89 C81.695,15.716 81.679,15.503 81.651,15.178 C81.659,15.093 81.664,15.011 81.672,14.879 C81.673,14.856 81.673,14.856 81.674,14.833 C81.712,14.152 81.765,13.847 81.956,13.503 C82.021,13.348 82.068,13.218 82.17,12.92 C82.384,12.291 82.5,12.017 82.72,11.702 C83.917,9.99 85.758,9.026 87.9,8.95 C91.352,8.95 94.15,11.748 94.149,15.225 C93.849,18.196 92.381,20.285 89.779,21.068 C89.648,21.123 89.343,21.255 89.299,21.273 C89.177,21.323 89.1,21.347 89.005,21.362 C88.955,21.369 88.359,21.405 87.875,21.449 C87.447,21.408 87.019,21.358 86.592,21.308 L86.585,21.305 C84.09,20.386 82.811,19.359 81.926,16.85 L79.372,16.85 C80.202,20.691 83.025,23.004 86.719,23.846 L86.932,23.877 L86.932,29.912 L86.732,29.952 C82.237,30.869 79.206,34.203 79.15,38.59 C79.153,38.66 79.154,38.716 79.157,38.839 C79.159,38.922 79.159,38.922 79.161,39.004 C79.17,39.298 79.189,39.493 79.234,39.68 L79.288,39.906 L79.067,39.976 L58.937,46.403 L59.003,46.556 L59.055,46.678 L59.055,46.678 L58.595,46.875 L58.369,46.346 C57.112,43.37 53.939,41.429 50.5,41.35 C45.667,41.35 41.75,45.268 41.75,50.09 C41.757,50.256 41.769,50.603 41.772,50.648 C41.776,50.703 41.829,51.189 41.821,51.124 L41.921,51.602 L41.921,51.605 L41.677,51.657 L41.751,51.889 L20.375,58.702 L20.375,58.702 L20.248,58.702 L20.173,58.6 C17.98,55.623 15.526,54.043 12.5,54.05 C7.668,54.05 3.75,57.968 3.75,62.787 C4.032,66.876 6.423,70.131 10.402,71.236 L10.355,68.56 C10.215,68.506 10.324,68.548 10.024,68.444 C9.494,68.267 9.263,68.17 8.999,67.978 C7.275,66.726 6.315,64.921 6.25,62.8 C6.25,59.348 9.048,56.55 12.525,56.551 C14.813,56.782 16.401,57.573 17.624,59.243 C18.238,60 18.553,60.928 18.657,61.887 L21.047,61.124 C20.989,60.829 21.019,60.981 20.958,60.669 C20.893,60.424 20.937,60.585 20.818,60.19 L20.817,60.186 L20.816,60.185 L21.295,60.04 C21.409,60.405 21.43,60.476 21.449,60.559 C21.507,60.865 21.481,60.728 21.527,60.97 L42.577,54.25 L42.723,54.204 L42.831,54.312 L42.854,54.34 C45.029,57.286 47.485,58.856 50.5,58.85 C55.446,58.77 59.007,54.922 59.25,50.104 C59.229,49.592 59.234,49.829 59.231,49.393 C59.225,49.282 59.232,49.349 59.201,49.191 L59.198,49.177 L59.198,49.177 C59.189,49.134 59.078,48.573 59.064,48.496 C59.05,48.427 58.962,47.949 58.931,47.781 L59.422,47.69 C59.476,47.98 59.444,47.805 59.519,48.212 C59.54,48.325 59.528,48.262 59.555,48.402 C59.598,48.624 59.572,48.49 59.634,48.805 L79.791,42.37 L82.466,41.516 C82.268,41.052 82.054,40.596 81.849,40.136 C81.799,40 81.775,39.882 81.753,39.68 C81.744,39.6 81.695,39.057 81.672,38.828 L81.651,38.575 C82.109,35.345 82.917,34.528 85.552,32.869 L86.586,32.495 C86.588,32.494 86.588,32.494 86.59,32.493 L86.594,32.492 L86.612,32.486 L86.934,32.391 L86.934,32.446 C87.264,32.413 87.595,32.382 87.925,32.351 L89.206,32.492 L89.779,32.733 C89.917,32.791 90.033,32.832 90.3,32.922 C90.868,33.114 91.116,33.219 91.4,33.421 C93.119,34.65 94.081,36.471 94.15,38.6 C94.15,42.052 91.352,44.85 87.875,44.849 C85.792,44.638 83.731,43.904 82.685,41.971 L80.227,42.756 C81.671,45.776 84.746,47.059 87.9,47.35 C92.838,47.27 96.406,43.43 96.649,38.615 C96.185,34.793 94.523,32.299 91.157,30.489 L89.615,30.063 L89.432,30.013 L89.432,24.289 C89.3,24.318 89.38,24.301 89.19,24.339 L89.13,24.35 L89.035,23.859 L89.432,23.775 L89.432,23.774 L89.615,23.736 L89.63,23.733 L89.63,23.733 L89.632,23.733 C93.701,22.903 96.579,19.387 96.65,15.2 z M18.749,15.222 C18.741,15.315 18.734,15.412 18.725,15.538 C18.721,15.602 18.721,15.602 18.717,15.666 C18.695,16.007 18.683,16.16 18.643,16.418 L18.529,16.695 L18.473,16.779 L18.528,16.697 C18.455,16.871 18.402,17.016 18.288,17.348 C18.048,18.044 17.92,18.347 17.682,18.696 C16.515,20.403 14.654,21.368 12.475,21.449 C9.38,21.137 7.306,19.542 6.472,16.697 C6.317,16.329 6.317,16.328 6.311,16.178 C6.31,16.173 6.307,15.983 6.303,15.89 C6.295,15.716 6.279,15.504 6.251,15.175 C6.298,14.715 6.329,14.112 6.325,14.154 C6.341,14.003 6.284,14.149 6.556,13.503 C6.621,13.348 6.668,13.218 6.77,12.92 C6.984,12.291 7.1,12.017 7.32,11.702 C8.517,9.99 10.358,9.026 12.525,8.951 C15.555,9.257 17.639,10.787 18.444,13.503 C18.716,14.149 18.659,14.003 18.675,14.154 C18.671,14.112 18.702,14.715 18.749,15.175 L18.749,15.222 z M18.249,15.201 C18.22,14.87 18.188,14.539 18.178,14.207 C18.17,14.133 18.21,14.236 17.974,13.671 C17.221,11.136 15.313,9.735 12.509,9.45 C10.53,9.52 8.835,10.407 7.73,11.989 C7.546,12.252 7.442,12.497 7.243,13.082 C7.138,13.39 7.088,13.528 7.017,13.697 C6.79,14.236 6.83,14.133 6.822,14.207 C6.828,14.148 6.797,14.748 6.749,15.175 C6.778,15.462 6.794,15.685 6.802,15.868 C6.807,15.969 6.81,16.16 6.81,16.158 C6.813,16.222 6.806,16.203 6.942,16.53 C7.726,19.199 9.626,20.659 12.491,20.95 C14.481,20.874 16.195,19.986 17.269,18.414 C17.474,18.114 17.59,17.838 17.815,17.185 C17.996,16.685 17.903,16.908 18.083,16.512 L18.067,16.505 L18.163,16.293 C18.185,16.113 18.196,15.966 18.218,15.633 C18.222,15.569 18.222,15.569 18.226,15.505 C18.242,15.286 18.234,15.388 18.249,15.201 z M21.726,15.787 L21.726,15.788 L21.726,15.789 C21.713,15.954 21.718,15.879 21.709,16.013 C21.707,16.047 21.705,16.06 21.695,16.13 L21.199,16.073 L21.228,15.744 L21.726,15.787 z M42.381,53.352 L41.917,53.534 C41.773,53.238 41.676,52.918 41.623,52.579 L42.109,52.467 L42.381,53.352 z M56.277,15.449 L56.232,15.449 L56.225,15.538 C56.221,15.602 56.221,15.602 56.217,15.667 C56.195,16.008 56.183,16.16 56.143,16.418 L56.029,16.695 L55.973,16.779 L56.028,16.697 C55.955,16.871 55.902,17.016 55.788,17.348 C55.548,18.044 55.42,18.347 55.182,18.696 C54.015,20.403 52.154,21.368 49.975,21.449 C46.88,21.137 44.806,19.542 43.972,16.697 C43.817,16.329 43.817,16.328 43.811,16.178 C43.81,16.173 43.807,15.983 43.803,15.89 C43.795,15.716 43.779,15.504 43.751,15.175 C43.798,14.715 43.829,14.112 43.825,14.154 C43.841,14.003 43.784,14.148 44.056,13.503 C44.194,13.152 44.121,13.345 44.27,12.92 C44.484,12.291 44.6,12.017 44.82,11.702 C46.017,9.99 47.858,9.026 50.025,8.951 C53.055,9.257 55.139,10.787 55.944,13.503 C56.216,14.149 56.159,14.003 56.175,14.154 C56.171,14.112 56.202,14.715 56.249,15.175 L56.277,15.449 z M55.749,15.2 C55.72,14.87 55.688,14.539 55.678,14.207 C55.67,14.133 55.71,14.236 55.474,13.671 C54.721,11.136 52.813,9.735 50.009,9.45 C48.03,9.52 46.335,10.407 45.23,11.989 C45.046,12.252 44.942,12.497 44.743,13.082 C44.638,13.39 44.588,13.528 44.517,13.697 C44.489,13.869 44.332,14.027 44.322,14.207 C44.328,14.148 44.297,14.748 44.249,15.175 C44.278,15.462 44.294,15.685 44.302,15.868 C44.307,15.969 44.31,16.16 44.31,16.158 C44.313,16.222 44.306,16.203 44.442,16.53 C45.226,19.199 47.126,20.659 49.991,20.95 C51.981,20.874 53.695,19.986 54.769,18.414 C54.974,18.114 55.09,17.838 55.315,17.185 C55.496,16.685 55.403,16.908 55.582,16.512 L55.567,16.505 L55.663,16.293 C55.685,16.113 55.696,15.966 55.718,15.635 C55.722,15.57 55.722,15.57 55.726,15.504 C55.742,15.286 55.734,15.387 55.749,15.2 z M56.75,50.1 C56.75,53.552 53.952,56.35 50.475,56.349 C48.4,56.202 46.713,55.292 45.415,53.695 L45.414,53.695 L45.413,53.692 L45.412,53.691 L45.412,53.691 C44.715,52.85 44.43,51.815 44.315,50.755 L44.25,50.1 C44.25,46.648 47.048,43.85 50.544,43.854 C53.144,44.313 54.463,44.868 55.501,46.343 L55.882,47.07 L55.864,47.101 L55.891,47.09 C56.13,47.657 56.537,48.538 56.575,48.654 C56.619,48.788 56.64,48.908 56.661,49.129 C56.661,49.129 56.716,49.747 56.746,50.044 L56.745,50.044 L56.746,50.045 L56.749,50.076 L56.75,50.1 z M56.249,50.106 L56.248,50.094 C56.218,49.793 56.163,49.175 56.164,49.178 C56.145,48.99 56.13,48.901 56.1,48.809 C55.881,48.302 55.654,47.8 55.435,47.293 L55.075,46.603 C54.153,45.296 52.937,44.784 50.5,44.35 C47.324,44.35 44.75,46.925 44.749,50.075 L44.813,50.722 C44.807,51.718 45.277,52.587 45.811,53.39 L45.816,53.396 C46.928,54.92 48.381,55.635 50.5,55.85 C53.857,55.722 55.927,53.306 56.249,50.106 z M59.226,15.787 L59.226,15.788 L59.226,15.789 C59.213,15.954 59.218,15.879 59.209,16.013 C59.207,16.047 59.205,16.06 59.195,16.13 L58.699,16.073 L58.728,15.744 L59.226,15.787 z M79.201,14.38 L79.191,14.473 L78.693,14.432 C78.694,14.401 78.694,14.401 78.697,14.371 C78.701,14.337 78.701,14.337 78.707,14.309 L79.201,14.38 z M86.594,21.308 L86.592,21.308 L86.592,21.308 L86.594,21.308 z M89.081,29.445 L89.001,29.938 L88.557,29.883 L88.601,29.385 L88.87,29.402 L89.081,29.445 z M93.65,15.2 C93.65,12.025 91.076,9.45 87.909,9.45 C85.93,9.52 84.235,10.407 83.13,11.989 C82.946,12.252 82.842,12.497 82.643,13.082 C82.538,13.39 82.488,13.528 82.405,13.721 C82.251,14.001 82.207,14.254 82.174,14.861 C82.172,14.884 82.172,14.884 82.171,14.907 C82.163,15.044 82.157,15.131 82.149,15.175 C82.178,15.462 82.194,15.685 82.202,15.868 C82.207,15.969 82.21,16.16 82.21,16.158 C82.232,16.28 82.214,16.215 82.27,16.35 L82.284,16.35 L82.337,16.512 L82.479,16.85 L82.455,16.85 C83.018,19.107 84.791,19.977 86.754,20.833 C87.128,20.87 87.501,20.91 87.875,20.951 C88.329,20.906 88.907,20.871 88.929,20.867 C88.979,20.86 89.02,20.847 89.108,20.811 C89.148,20.795 89.45,20.664 89.61,20.598 C92.027,19.869 93.371,17.958 93.65,15.2 z M93.65,38.608 C93.586,36.642 92.701,34.966 91.109,33.828 C90.879,33.664 90.661,33.572 90.14,33.396 C89.862,33.302 89.738,33.258 89.585,33.193 L89.084,32.971 L87.925,32.849 C87.32,32.91 87.32,32.91 86.787,32.953 L86.782,32.955 C86.78,32.956 86.78,32.956 86.778,32.957 L86.743,32.933 L86.752,32.965 C83.958,33.783 82.447,35.671 82.149,38.575 L82.169,38.778 C82.193,39.011 82.242,39.551 82.25,39.625 C82.268,39.791 82.285,39.873 82.318,39.965 C82.565,40.497 82.802,41.033 83.034,41.571 C83.942,43.501 85.949,44.077 87.9,44.35 C91.076,44.35 93.65,41.776 93.65,38.608 z" fill="#000000"></path></g><g><path d="M21.274,86.6 C20.501,90.91 16.705,93.588 12.5,93.8 C7.529,93.8 3.5,89.771 3.5,84.8 C3.572,80.5 6.525,76.878 10.738,76.018 L10.793,79.131 C8.075,79.945 6.773,82.09 6.5,84.8 C6.5,88.114 9.186,90.8 12.5,90.8 C14.528,90.734 16.28,89.823 17.475,88.155 C17.803,87.698 17.912,87.118 18.13,86.6 L21.274,86.6 z" fill="#000000"></path><path d="M21.573,86.35 L21.52,86.644 C20.758,90.897 17.036,93.822 12.5,94.05 C7.391,94.05 3.25,89.909 3.25,84.796 C3.324,80.364 6.373,76.653 10.688,75.773 L10.982,75.713 L10.988,76.014 L11.043,79.127 L11.047,79.316 L10.865,79.371 C8.4,80.109 7.032,82.02 6.75,84.8 C6.75,87.976 9.324,90.55 12.492,90.55 C14.458,90.486 16.131,89.602 17.272,88.009 C17.435,87.782 17.525,87.567 17.699,87.052 C17.792,86.777 17.835,86.654 17.899,86.503 L17.964,86.35 L18.13,86.35 L21.274,86.35 L21.573,86.35 z M20.947,86.85 L18.3,86.85 C18.239,87.007 18.285,86.887 18.173,87.211 C17.983,87.774 17.88,88.019 17.679,88.3 C16.447,90.02 14.629,90.981 12.5,91.05 C9.048,91.05 6.25,88.252 6.251,84.775 C6.506,82.033 7.961,79.94 10.54,78.961 L10.494,76.35 C6.346,77.341 4.157,80.767 3.75,84.8 C3.75,89.633 7.668,93.55 12.488,93.55 C16.601,93.268 19.847,90.848 20.947,86.85 z" fill="#000000"></path></g><g><path d="M100,86.599 L93.53,86.599 C93.935,85.636 93.757,86.222 93.9,84.8 L93.779,83.599 L93.779,83.599 C92.919,80.644 90.906,79.103 87.9,78.8 C85.912,78.88 84.063,79.747 82.925,81.445 C82.624,82.161 82.323,82.876 82.022,83.591 C82.022,83.594 82.021,83.597 82.021,83.6 L81.9,84.8 C82.043,86.222 81.865,85.636 82.27,86.6 L59.274,86.599 L59.274,86.6 L56.13,86.6 C56.535,85.636 56.357,86.222 56.5,84.8 L56.379,83.6 C55.519,80.644 53.506,79.103 50.5,78.8 C48.512,78.88 46.663,79.747 45.525,81.445 C45.224,82.161 44.923,82.876 44.622,83.591 C44.622,83.594 44.621,83.597 44.621,83.6 L44.5,84.8 C44.643,86.222 44.465,85.636 44.87,86.6 L41.726,86.6 L41.598,85.992 L41.726,86.6 L21.274,86.6 L21.274,86.6 L18.13,86.6 C18.535,85.636 18.357,86.222 18.5,84.8 L18.379,83.6 C17.405,80.61 16.538,80.113 13.791,78.956 L13.791,78.956 C13.336,78.765 13.739,78.925 12.5,78.8 C11.112,78.94 11.664,78.765 10.793,79.131 L10.738,76.018 L10.738,76.018 L10.658,71.566 L10.602,68.388 C11.664,68.835 11.043,68.653 12.5,68.8 L13.607,68.689 C16.67,68.208 18.046,65.607 18.5,62.8 L18.441,62.218 L21.334,61.294 C21.515,62.181 21.444,61.681 21.5,62.8 C21.441,67.531 18.102,70.799 13.661,71.705 L13.736,75.911 C13.301,75.822 13.532,75.855 13.04,75.822 C13.532,75.855 13.301,75.822 13.736,75.911 L13.736,75.911 C17.967,76.581 20.339,79.674 21.396,83.6 L41.604,83.6 C41.485,84.181 41.551,83.785 41.5,84.8 L41.528,85.429 L41.5,84.8 C41.551,83.785 41.485,84.181 41.604,83.6 C42.559,78.736 45.767,76.409 50.5,75.8 C55.296,75.952 58.177,79.239 59.396,83.599 L79.004,83.599 L79.402,81.96 C80.971,78.104 83.896,76.315 87.9,75.8 C92.604,75.86 95.894,79.173 96.796,83.6 L100,83.599 L100,86.599 z M21.409,85.938 L21.278,86.583 C21.406,85.974 21.377,86.192 21.409,85.938 z M21.454,83.88 L21.454,83.88 L21.424,83.733 L21.454,83.88 z M21.499,84.813 L21.465,85.488 C21.498,85.226 21.472,85.449 21.499,84.813 z M59.409,85.938 L59.278,86.583 C59.406,85.974 59.377,86.191 59.409,85.938 z M59.454,83.88 L59.454,83.88 L59.423,83.732 L59.454,83.88 z M59.499,84.814 L59.465,85.488 C59.498,85.226 59.472,85.449 59.499,84.814 z M96.809,85.938 L96.677,86.585 C96.806,85.974 96.777,86.192 96.809,85.938 z M96.854,83.88 L96.854,83.88 L96.83,83.764 L96.854,83.88 z M96.899,84.813 L96.865,85.488 C96.898,85.226 96.872,85.449 96.899,84.813 z" fill="#000000"></path><path d="M100.25,86.849 L93.154,86.849 L93.299,86.502 C93.359,86.361 93.492,86.053 93.508,86.016 C93.545,85.926 93.558,85.883 93.566,85.832 C93.571,85.806 93.606,85.226 93.651,84.825 L93.533,83.653 C92.757,80.857 90.647,79.49 87.91,79.05 C85.909,79.131 84.181,80.02 83.155,81.542 C82.93,82.079 82.93,82.079 82.704,82.615 C82.478,83.151 82.478,83.151 82.271,83.617 C82.27,83.619 82.27,83.619 82.27,83.621 C82.27,83.623 82.27,83.623 82.27,83.625 L82.149,84.775 C82.194,85.226 82.23,85.806 82.234,85.832 C82.242,85.883 82.255,85.926 82.293,86.016 C82.308,86.053 82.441,86.361 82.501,86.503 L82.647,86.849 L59.524,86.849 L59.524,86.85 L55.754,86.85 L55.9,86.503 C55.959,86.361 56.092,86.053 56.108,86.016 C56.145,85.926 56.158,85.883 56.166,85.832 C56.17,85.806 56.206,85.226 56.251,84.825 L56.139,83.669 C55.323,80.863 53.435,79.347 50.51,79.05 C48.509,79.131 46.781,80.02 45.755,81.542 C45.53,82.079 45.53,82.079 45.304,82.615 C45.229,82.794 45.229,82.794 45.153,82.973 C45.003,83.33 45.003,83.33 44.871,83.616 C44.87,83.618 44.87,83.618 44.87,83.621 C44.87,83.623 44.87,83.623 44.87,83.625 L44.749,84.775 C44.794,85.226 44.83,85.806 44.834,85.832 C44.842,85.883 44.855,85.926 44.893,86.016 C44.908,86.053 45.041,86.361 45.101,86.503 L45.247,86.85 L44.87,86.85 L21.524,86.85 L21.524,86.85 L17.753,86.85 L17.899,86.503 C17.959,86.361 18.092,86.053 18.108,86.016 C18.145,85.926 18.158,85.883 18.166,85.832 C18.17,85.806 18.206,85.226 18.251,84.825 L18.141,83.677 C17.267,80.994 16.686,80.446 13.694,79.187 L13.687,79.184 C13.488,79.102 13.573,79.118 13.441,79.103 C13.126,79.105 12.968,79.099 12.525,79.049 C12.06,79.096 11.486,79.129 11.486,79.128 C11.407,79.139 11.703,79.02 10.89,79.362 L10.55,79.505 L10.543,79.136 L10.488,76.023 L10.408,71.57 L10.352,68.393 L10.345,68.009 L10.699,68.158 C10.874,68.232 11.229,68.386 11.239,68.39 C11.344,68.435 11.393,68.451 11.447,68.461 C11.493,68.469 12.094,68.508 12.475,68.551 L13.569,68.442 C16.199,68.029 17.739,65.944 18.251,62.825 L18.193,62.243 L18.172,62.041 L18.365,61.98 L21.258,61.056 L21.524,60.972 L21.579,61.244 C21.609,61.392 21.674,61.7 21.673,61.696 C21.696,61.806 21.706,61.866 21.713,61.937 C21.719,61.999 21.734,62.483 21.75,62.803 C21.595,67.618 18.334,70.651 13.915,71.892 L13.983,75.713 C18.105,76.422 20.362,79.611 21.578,83.35 L41.413,83.35 C42.5,78.351 45.777,76.423 50.508,75.55 C55.313,75.75 58.111,79.081 59.575,83.349 L78.808,83.349 L79.17,81.865 C80.705,78.094 83.561,76.106 87.903,75.55 C92.699,75.707 95.743,78.942 96.985,83.349 L100,83.349 L100.25,83.349 L100.25,86.849 z M99.75,86.349 L99.75,83.849 L97.098,83.849 L97.104,83.88 L97.104,83.88 L96.609,83.93 L96.592,83.85 L96.552,83.649 C95.632,79.141 92.304,76.106 87.932,76.048 C83.795,76.58 81.096,78.458 79.645,82.019 L79.247,83.658 L79.2,83.849 L59.698,83.849 L59.704,83.88 L59.704,83.88 L59.209,83.93 L59.189,83.831 L59.179,83.782 L59.179,83.782 L59.179,83.782 L59.187,83.78 L59.156,83.667 C57.854,79.014 54.853,76.188 50.532,76.048 C45.648,76.676 42.74,79.109 41.849,83.65 C41.832,83.783 41.782,83.913 41.776,84.049 C41.78,83.97 41.768,84.449 41.75,84.789 L41.776,85.398 L41.777,85.418 L41.777,85.419 L41.278,85.44 L41.25,84.787 C41.268,84.432 41.28,83.954 41.277,84.025 C41.281,83.929 41.276,83.988 41.299,83.85 L21.698,83.85 L21.704,83.88 L21.704,83.88 L21.209,83.93 L21.179,83.783 L21.187,83.781 L21.155,83.665 C20.018,79.445 17.524,76.764 13.686,76.156 C13.706,76.16 13.406,76.097 13.379,76.094 C13.357,76.091 13.141,76.079 13.023,76.071 L13.057,75.572 C13.157,75.579 13.398,75.592 13.44,75.597 L13.481,75.604 L13.411,71.709 L13.408,71.501 L13.611,71.46 C18.15,70.534 21.195,67.218 21.25,62.813 C21.234,62.494 21.219,62.028 21.215,61.983 C21.21,61.935 21.203,61.89 21.184,61.797 C21.148,61.625 21.16,61.685 21.146,61.617 L18.708,62.395 L18.747,62.84 C18.201,66.215 16.526,68.484 13.633,68.937 L12.475,69.049 C12.069,69.008 11.438,68.967 11.359,68.953 C11.261,68.935 11.18,68.908 11.044,68.851 C10.938,68.805 11,68.832 10.858,68.77 L10.908,71.561 L10.988,76.014 L11.037,78.756 C11.087,78.734 11.053,78.749 11.139,78.713 C11.251,78.667 11.326,78.646 11.419,78.633 C11.442,78.63 12.028,78.596 12.525,78.551 C12.999,78.599 13.14,78.604 13.438,78.603 C13.588,78.602 13.613,78.61 13.888,78.726 L13.888,78.726 C16.59,79.696 17.701,80.927 18.628,83.575 L18.749,84.825 C18.705,85.255 18.669,85.856 18.66,85.911 C18.645,86.006 18.621,86.084 18.57,86.207 C18.528,86.304 18.548,86.257 18.509,86.35 L21.024,86.35 L21.024,86.35 L21.07,86.35 L21.164,85.888 L21.657,85.969 C21.639,86.117 21.638,86.124 21.623,86.186 L21.584,86.35 L41.418,86.35 L41.353,86.043 L41.842,85.94 L41.929,86.35 L44.492,86.35 C44.452,86.257 44.472,86.304 44.431,86.207 C44.379,86.084 44.355,86.006 44.34,85.91 C44.331,85.856 44.295,85.255 44.251,84.775 L44.372,83.574 C44.373,83.572 44.373,83.572 44.373,83.57 C44.373,83.568 44.373,83.568 44.392,83.494 C44.542,83.136 44.542,83.136 44.693,82.779 C44.768,82.6 44.768,82.6 44.843,82.421 C45.069,81.885 45.069,81.885 45.317,81.306 C46.458,79.603 48.336,78.637 50.525,78.551 C53.685,78.87 55.745,80.525 56.628,83.575 L56.749,84.825 C56.705,85.256 56.669,85.856 56.66,85.91 C56.645,86.006 56.621,86.084 56.57,86.207 C56.528,86.304 56.549,86.257 56.509,86.35 L59.024,86.35 L59.024,86.349 L59.07,86.349 L59.164,85.888 L59.657,85.969 C59.639,86.117 59.638,86.124 59.623,86.186 L59.584,86.349 L81.891,86.349 C81.852,86.257 81.872,86.304 81.831,86.207 C81.779,86.084 81.755,86.006 81.74,85.91 C81.731,85.856 81.695,85.255 81.651,84.775 L81.772,83.574 C81.773,83.572 81.773,83.572 81.773,83.569 C81.773,83.567 81.773,83.567 81.792,83.494 C82.017,82.958 82.017,82.958 82.243,82.421 C82.469,81.885 82.469,81.885 82.717,81.306 C83.858,79.603 85.736,78.637 87.925,78.551 C90.922,78.822 92.955,80.576 93.954,83.349 L94.005,83.349 L94.028,83.574 L94.149,84.825 C94.105,85.255 94.069,85.856 94.06,85.91 C94.045,86.006 94.021,86.084 93.97,86.207 C93.928,86.304 93.949,86.257 93.909,86.349 L96.47,86.349 L96.564,85.888 L97.057,85.969 C97.039,86.117 97.038,86.124 97.023,86.186 L96.985,86.349 L99.75,86.349 z M21.749,84.824 C21.739,85.068 21.737,85.112 21.734,85.295 C21.733,85.359 21.733,85.366 21.714,85.519 L21.216,85.475 L21.25,84.804 L21.25,84.803 L21.25,84.801 L21.749,84.824 z M59.749,84.825 C59.739,85.068 59.737,85.113 59.734,85.295 C59.733,85.359 59.733,85.366 59.714,85.519 L59.216,85.475 L59.25,84.804 L59.25,84.803 L59.25,84.801 L59.749,84.825 z M97.149,84.824 C97.139,85.068 97.137,85.112 97.134,85.295 C97.133,85.359 97.133,85.366 97.114,85.519 L96.616,85.475 L96.65,84.804 L96.65,84.803 L96.65,84.801 L97.149,84.824 z" fill="#000000"></path></g><g><path d="M96.674,86.6 C95.901,90.91 92.105,93.588 87.9,93.8 C83.627,93.727 79.982,90.798 79.126,86.6 L82.271,86.6 C83.078,89.274 85.244,90.532 87.9,90.8 C89.928,90.734 91.68,89.823 92.875,88.155 C93.203,87.698 93.312,87.118 93.53,86.6 L96.674,86.6 z" fill="#000000"></path><path d="M96.973,86.35 L96.921,86.644 C96.158,90.897 92.436,93.822 87.896,94.05 C83.479,93.975 79.756,90.938 78.881,86.649 L78.82,86.35 L82.456,86.35 L82.51,86.527 C83.237,88.933 85.147,90.271 87.892,90.55 C89.858,90.486 91.531,89.602 92.672,88.009 C92.835,87.782 92.925,87.567 93.099,87.052 C93.192,86.776 93.236,86.654 93.299,86.503 L93.364,86.35 L96.973,86.35 z M96.348,86.85 L93.701,86.85 C93.639,87.007 93.685,86.887 93.573,87.211 C93.383,87.774 93.28,88.019 93.079,88.3 C91.847,90.02 90.028,90.981 87.875,91.049 C85.177,90.797 83.078,89.394 82.1,86.85 L79.46,86.85 C80.453,90.973 83.88,93.144 87.887,93.55 C92.001,93.268 95.247,90.848 96.348,86.85 z" fill="#000000"></path></g><g><path d="M59.274,86.6 C58.501,90.91 54.705,93.588 50.5,93.8 C46.227,93.727 42.582,90.798 41.726,86.6 L44.87,86.6 C45.678,89.274 47.844,90.532 50.5,90.8 C52.528,90.734 54.28,89.823 55.475,88.155 C55.803,87.698 55.912,87.118 56.13,86.6 L59.274,86.6 z" fill="#000000"></path><path d="M59.573,86.35 L59.52,86.644 C58.758,90.897 55.036,93.822 50.496,94.05 C46.079,93.975 42.355,90.938 41.481,86.65 L41.42,86.35 L45.056,86.35 L45.11,86.527 C45.837,88.933 47.747,90.271 50.492,90.55 C52.458,90.486 54.131,89.602 55.272,88.009 C55.435,87.782 55.525,87.567 55.699,87.052 C55.792,86.777 55.836,86.654 55.899,86.503 L55.964,86.35 L59.573,86.35 z M58.947,86.85 L56.301,86.85 C56.239,87.007 56.285,86.887 56.173,87.211 C55.983,87.774 55.88,88.019 55.679,88.3 C54.447,90.02 52.628,90.981 50.475,91.049 C47.777,90.797 45.678,89.393 44.699,86.85 L42.06,86.85 C43.053,90.973 46.48,93.144 50.488,93.55 C54.601,93.268 57.847,90.849 58.947,86.85 z" fill="#000000"></path></g></g><path d="M5,15.325 C5,11.114 8.414,7.7 12.625,7.7 C16.836,7.7 20.25,11.114 20.25,15.325 C20.25,19.536 16.836,22.95 12.625,22.95 C8.414,22.95 5,19.536 5,15.325 z" fill="#000000"></path><path d="M42.375,15.325 C42.375,11.114 45.789,7.7 50,7.7 C54.211,7.7 57.625,11.114 57.625,15.325 C57.625,19.536 54.211,22.95 50,22.95 C45.789,22.95 42.375,19.536 42.375,15.325 z" fill="#000000"></path><path d="M80.5,15.325 C80.5,11.114 83.914,7.7 88.125,7.7 C92.336,7.7 95.75,11.114 95.75,15.325 C95.75,19.536 92.336,22.95 88.125,22.95 C83.914,22.95 80.5,19.536 80.5,15.325 z" fill="#000000"></path><path d="M80.5,38.875 C80.5,34.664 83.914,31.25 88.125,31.25 C92.336,31.25 95.75,34.664 95.75,38.875 C95.75,43.086 92.336,46.5 88.125,46.5 C83.914,46.5 80.5,43.086 80.5,38.875 z" fill="#000000"></path><path d="M42.375,50 C42.375,45.789 45.789,42.375 50,42.375 C54.211,42.375 57.625,45.789 57.625,50 C57.625,54.211 54.211,57.625 50,57.625 C45.789,57.625 42.375,54.211 42.375,50 z" fill="#000000"></path><path d="M5,62.625 C5,58.414 8.414,55 12.625,55 C16.836,55 20.25,58.414 20.25,62.625 C20.25,66.836 16.836,70.25 12.625,70.25 C8.414,70.25 5,66.836 5,62.625 z" fill="#000000"></path></g></svg>