<?xml version="1.0" encoding="UTF-8"?>
<svg width="369px" height="144px" viewBox="0 0 369 144" version="1.1" xmlns="http://www.w3.org/2000/svg" xmlns:xlink="http://www.w3.org/1999/xlink">
    <!-- Generator: Sketch 52.5 (67469) - http://www.bohemiancoding.com/sketch -->
    <title>agrandissement</title>
    <desc>Created with Sketch.</desc>
    <g id="Page-1" stroke="none" stroke-width="1" fill="none" fill-rule="evenodd" opacity="0.9">
        <g id="Page-choix" transform="translate(-55.000000, -366.000000)">
            <g id="Agrandissement" transform="translate(41.000000, 257.000000)">
                <g id="agrandissement" transform="translate(14.000000, 109.000000)">
                    <path d="M204.5,115.495716 C301,70.9113993 403,60.0930508 386,17.0800337 C369,-25.9329835 279,27.0800337 173.5,17.0800337 C68,7.08003366 1.00208101e-14,30.7013929 0,91.3907133 C0,152.080034 108,160.080034 204.5,115.495716 Z" id="Oval" fill-opacity="0.163977582" fill="#0081D5"></path>
                    <g id="Group-8" transform="translate(80.000000, 10.000000)">
                        <g id="Group-14-Copy" transform="translate(0.000000, 26.804124)">
                            <g id="Group-2-Copy-7" transform="translate(0.000000, 18.088097)">
                                <g id="Group-6-Copy" transform="translate(28.424153, 26.804124) scale(-1, 1) translate(-28.424153, -26.804124) translate(0.589102, 0.000000)">
                                    <path d="M2.01037622,7.59041978 L49.3022044,28.0975885 C49.8505844,28.3353827 50.2054492,28.876055 50.2054492,29.4737728 L50.2054492,54.1082474 L2.01037622,54.1082474 L2.01037622,7.59041978 Z" id="Rectangle-Copy-4" stroke="#FFFFFF" fill="#4CA7E2"></path>
                                    <path d="M55.6288307,16.6447703 L55.8004772,14.1286745 L0.111936403,17.5029859 C0.0424484685,17.5071964 -0.0253945266,17.525871 -0.0872486828,17.5578142 C-0.332604721,17.6845226 -0.428787612,17.9861404 -0.302079184,18.2314965 L0.478644178,19.7432759 C0.569564228,19.9193319 0.755871641,20.0250872 0.953643606,20.0129039 L55.6288307,16.6447703 Z" id="Rectangle-Copy-6" stroke="#FFFFFF" fill="#4CA7E2" transform="translate(27.740001, 17.054522) rotate(-333.000000) translate(-27.740001, -17.054522) "></path>
                                    <g id="Group-11" transform="translate(18.074709, 30.178069)" fill="#FFFFFF" stroke="#4CA7E2">
                                        <path d="M2.50830098,8.55342081 L14.5622573,8.55342081 L14.5622573,6.52697818 C14.5622573,3.19837004 11.8638873,0.5 8.53527915,0.5 C5.20667102,0.5 2.50830098,3.19837004 2.50830098,6.52697818 L2.50830098,8.55342081 Z" id="Rectangle-Copy-7"></path>
                                        <rect id="Rectangle-Copy-8" x="0.5" y="7.8289597" width="15.5684831" height="2.44892221" rx="1.22446111"></rect>
                                    </g>
                                </g>
                                <path d="" id="Path" stroke="#0081D5"></path>
                            </g>
                            <g id="Group-5" transform="translate(52.577320, 0.000000)" fill="#FFFFFF" stroke="#4CA7E2">
                                <path d="M4.51660195,71.1963449 L50.7116749,71.1963449 L50.7116749,22.8577669 C50.7116749,22.6882464 50.6257814,22.5302718 50.4835011,22.4381116 L27.8859646,7.8008524 C27.7205791,7.69372605 27.5076978,7.69372605 27.3423122,7.8008524 L4.74477575,22.4381116 C4.60249549,22.5302718 4.51660195,22.6882464 4.51660195,22.8577669 L4.51660195,71.1963449 Z" id="Rectangle-Copy-2"></path>
                                <path d="M1.00755246,18.3230063 C0.798005221,18.4610941 0.723281523,18.7331194 0.832883071,18.9588754 L1.95825959,21.2769134 C1.96805624,21.2970924 1.97919972,21.3165893 1.99161449,21.3352719 C2.14444698,21.5652651 2.45478846,21.6278161 2.6847816,21.4749836 L26.7839554,5.46086819 C27.2869469,5.12662583 27.94133,5.12662583 28.4443215,5.46086819 L52.5434953,21.4749836 C52.5621779,21.4873984 52.5816748,21.4985419 52.6018538,21.5083385 C52.8502684,21.6289405 53.1494153,21.5253279 53.2700173,21.2769134 L54.3953938,18.9588754 C54.5049954,18.7331194 54.4302717,18.4610941 54.2207244,18.3230063 L27.8892634,0.971053007 C27.7223392,0.861053053 27.5059376,0.861053053 27.3390135,0.971053007 L1.00755246,18.3230063 Z" id="Rectangle"></path>
                                <path d="M21.5871603,67.91612 L33.6411166,67.91612 L33.6411166,56.1989557 C33.6411166,52.8703475 30.9427466,50.1719775 27.6141384,50.1719775 C24.2855303,50.1719775 21.5871603,52.8703475 21.5871603,56.1989557 L21.5871603,67.91612 Z" id="Rectangle"></path>
                                <g id="Group-10" transform="translate(8.033204, 30.459231)">
                                    <path d="M2.50830098,9.34067479 L14.5622573,9.34067479 L14.5622573,6.52697818 C14.5622573,3.19837004 11.8638873,0.5 8.53527915,0.5 C5.20667102,0.5 2.50830098,3.19837004 2.50830098,6.52697818 L2.50830098,9.34067479 Z" id="Rectangle-Copy"></path>
                                    <rect id="Rectangle-Copy-12" x="0.5" y="8.46626054" width="15.5684831" height="2.44892221" rx="1.22446111"></rect>
                                </g>
                                <g id="Group-12" transform="translate(30.626590, 30.459231)">
                                    <path d="M2.50830098,9.34067479 L14.5622573,9.34067479 L14.5622573,6.52697818 C14.5622573,3.19837004 11.8638873,0.5 8.53527915,0.5 C5.20667102,0.5 2.50830098,3.19837004 2.50830098,6.52697818 L2.50830098,9.34067479 Z" id="Rectangle-Copy-3"></path>
                                    <rect id="Rectangle-Copy-11" x="0.5" y="8.46626054" width="15.5684831" height="2.44892221" rx="1.22446111"></rect>
                                </g>
                                <path d="M16.0643326,71.1963449 L38.6618691,71.1963449 L38.6618691,70.9475164 C38.6618691,69.5668045 37.5425809,68.4475164 36.1618691,68.4475164 L18.5643326,68.4475164 C17.1836207,68.4475164 16.0643326,69.5668045 16.0643326,70.9475164 L16.0643326,71.1963449 Z" id="Rectangle"></path>
                            </g>
                        </g>
                        <g id="Group-15-Copy" transform="translate(135.051546, 0.000000)">
                            <g id="Group-13-Copy" transform="translate(4.123711, 47.562807)" fill="#FFFFFF" stroke="#4CA7E2">
                                <path d="M0.5,50.4957143 L47.9536082,50.4957143 L47.9536082,1 C47.9536082,0.723857625 47.7297506,0.5 47.4536082,0.5 L1,0.5 C0.723857625,0.5 0.5,0.723857625 0.5,1 L0.5,50.4957143 Z" id="Rectangle-Copy-9"></path>
                                <g id="Group-10" transform="translate(4.123711, 8.647783)">
                                    <path d="M2.56185567,9.58908017 L14.9639175,9.58908017 L14.9639175,6.70103093 C14.9639175,3.27629611 12.1876214,0.5 8.7628866,0.5 C5.33815178,0.5 2.56185567,3.27629611 2.56185567,6.70103093 L2.56185567,9.58908017 Z" id="Rectangle-Copy"></path>
                                    <rect id="Rectangle-Copy-12" x="0.5" y="8.66735062" width="16.0103093" height="2.53598238" rx="1.26799119"></rect>
                                </g>
                                <g id="Group-12" transform="translate(27.319588, 8.647783)">
                                    <path d="M2.56185567,9.58908017 L14.9639175,9.58908017 L14.9639175,6.70103093 C14.9639175,3.27629611 12.1876214,0.5 8.7628866,0.5 C5.33815178,0.5 2.56185567,3.27629611 2.56185567,6.70103093 L2.56185567,9.58908017 Z" id="Rectangle-Copy-3"></path>
                                    <rect id="Rectangle-Copy-11" x="0.5" y="8.66735062" width="16.0103093" height="2.53598238" rx="1.26799119"></rect>
                                </g>
                                <path d="M18.0257732,47.0628065 L30.4278351,47.0628065 L30.4278351,35.0465419 C30.4278351,31.6218071 27.6515389,28.845511 24.2268041,28.845511 C20.8020693,28.845511 18.0257732,31.6218071 18.0257732,35.0465419 L18.0257732,47.0628065 Z" id="Rectangle"></path>
                                <path d="M12.3556701,50.4258332 L35.5824742,50.4258332 L35.5824742,50.0823741 C35.5824742,48.7016623 34.4631861,47.5823741 33.0824742,47.5823741 L14.8556701,47.5823741 C13.4749582,47.5823741 12.3556701,48.7016623 12.3556701,50.0823741 L12.3556701,50.4258332 Z" id="Rectangle"></path>
                            </g>
                            <g id="Group-Copy">
                                <g id="Group-2">
                                    <path d="M52.5773196,45.641077 L4.12371134,45.641077 L4.12371134,22.4662576 C4.12371134,22.1281621 4.29454831,21.8129604 4.5778246,21.6283986 L27.8046287,6.4955366 C28.1364468,6.27934857 28.5645841,6.27934857 28.8964022,6.4955366 L52.1232063,21.6283986 C52.4064826,21.8129604 52.5773196,22.1281621 52.5773196,22.4662576 L52.5773196,45.641077 Z" id="Combined-Shape" fill="#4CA7E2"></path>
                                    <path d="M0.603759697,18.0661141 L27.6709479,0.254069055 C28.0045494,0.0345366487 28.4367812,0.0345366487 28.7703827,0.254069055 L55.8375709,18.0661141 C56.2572175,18.34227 56.40685,18.8868964 56.1872037,19.3386938 L55.0091243,21.761923 C54.7676494,22.2586204 54.1692425,22.4655191 53.6725451,22.2240442 C53.6325534,22.2046018 53.5939031,22.1825136 53.5568515,22.1579266 L28.7735879,5.71206881 C28.4385054,5.48971234 28.0028252,5.48971234 27.6677427,5.71206881 L2.88447906,22.1579266 C2.42429738,22.4632973 1.80369455,22.3377982 1.49832386,21.8776165 C1.47373688,21.8405649 1.45164866,21.8019146 1.43220627,21.761923 L0.254126867,19.3386938 C0.0344806142,18.8868964 0.184113096,18.34227 0.603759697,18.0661141 Z" id="Rectangle" fill="#4CA7E2"></path>
                                    <g id="Group-4" transform="translate(19.587629, 21.139025)" fill="#FFFFFF" stroke="#4CA7E2">
                                        <path d="M2.56185567,9.58908017 L14.9639175,9.58908017 L14.9639175,6.70103093 C14.9639175,3.27629611 12.1876214,0.5 8.7628866,0.5 C5.33815178,0.5 2.56185567,3.27629611 2.56185567,6.70103093 L2.56185567,9.58908017 Z" id="Rectangle-Copy-7"></path>
                                        <rect id="Rectangle-Copy-8" x="0.5" y="9.147783" width="16.0103093" height="2.36302672" rx="1.18151336"></rect>
                                    </g>
                                </g>
                            </g>
                        </g>
                    </g>
                </g>
            </g>
        </g>
    </g>
</svg>