<?xml version="1.0" encoding="UTF-8"?>
<svg width="304px" height="131px" viewBox="0 0 304 131" version="1.1" xmlns="http://www.w3.org/2000/svg" xmlns:xlink="http://www.w3.org/1999/xlink">
    <!-- Generator: Sketch 52.5 (67469) - http://www.bohemiancoding.com/sketch -->
    <title>annexe</title>
    <desc>Created with Sketch.</desc>
    <defs>
        <path d="M4,0 L29.75,0 C31.959139,-4.05812251e-16 33.75,1.790861 33.75,4 L33.75,36.25 L0,36.25 L0,4 C-2.705415e-16,1.790861 1.790861,4.05812251e-16 4,0 Z" id="path-1"></path>
    </defs>
    <g id="Page-1" stroke="none" stroke-width="1" fill="none" fill-rule="evenodd" opacity="0.9">
        <g id="Page-choix" transform="translate(-893.000000, -357.000000)">
            <g id="Annexe" transform="translate(854.000000, 257.000000)">
                <g id="annexe" transform="translate(39.000000, 100.000000)">
                    <path d="M287.801426,64.3593694 C345.49167,20.065317 234.634591,10.7096733 164.508706,47.131214 C94.3828215,83.5527547 92.7578215,33.2269971 70.0078215,64.8406335 C50.5078215,83.5527547 0.132821487,74.0570942 0.132821487,103.284167 C0.132821487,163.578371 230.111183,108.653422 287.801426,64.3593694 Z" id="Oval-Copy-2" fill-opacity="0.163977582" fill="#0081D5" transform="translate(152.003911, 77.280165) scale(-1, -1) translate(-152.003911, -77.280165) "></path>
                    <g id="Group-7-Copy" transform="translate(75.833333, 0.000000)">
                        <g id="Group-21" transform="translate(83.125000, 103.125000) scale(-1, 1) translate(-83.125000, -103.125000) translate(21.250000, 76.250000)">
                            <g id="Group-19" transform="translate(0.000000, 2.049180)" stroke="#4CA7E2">
                                <polygon id="Path-2" fill="#FFFFFF" points="-4.54747351e-13 33.3475101 80.8758059 3.55271368e-15 123.735895 17.8819981 44.0429165 51.2295082"></polygon>
                                <g id="Group-17" transform="translate(26.639344, 16.393443)" stroke-width="0.6">
                                    <path d="M0,4.45572352 C4.78142077,-1.26302056 6.07164542,3.21045857 3.87067395,17.8761609" id="Path-3"></path>
                                    <path d="M6.14754098,2.40654319 C10.9289617,-3.31220089 12.2191864,1.16127824 10.0182149,15.8269806" id="Path-3-Copy-2"></path>
                                    <path d="M5.12295082,7.17213115 L10.2459016,5.12295082" id="Line" stroke-linecap="square"></path>
                                    <path d="M5.12295082,11.2704918 L10.2459016,9.22131148" id="Line-Copy" stroke-linecap="square"></path>
                                </g>
                            </g>
                            <g id="Group-20" transform="translate(48.381148, 0.000000)">
                                <polygon id="Path-4" fill="#4CA7E2" points="57.1516393 7.17213115 47.9303279 2.04918033 0.719342133 23.5655738 11.045082 28.6885246"></polygon>
                                <path d="M52.0286885,8.96516393 C54.760929,2.81762295 57.4931694,0.768442623 60.2254098,2.81762295 C60.2254098,5.54986339 60.2254098,9.3920765 60.2254098,14.3442623" id="Path-5" stroke="#4CA7E2" stroke-width="0.7"></path>
                                <path d="M47.9303279,5.1869877 C49.9795082,0.576331967 52.0286885,-0.960553279 54.0778689,0.576331967 C54.0778689,2.6255123 54.0778689,5.95543033 54.0778689,10.5660861" id="Path-5-Copy" stroke="#4CA7E2" stroke-width="0.7"></path>
                            </g>
                        </g>
                        <g id="Group-18" transform="translate(88.750000, 28.750000)">
                            <rect id="Rectangle" stroke="#4CA7E2" fill="#FFFFFF" x="0.5" y="0.5" width="74" height="41.5"></rect>
                            <path d="M25.625,1.25 L25.625,41.25" id="Line-6" stroke="#4CA7E2" fill="#FFFFFF" stroke-linecap="square"></path>
                            <path d="M49.375,1.25 L49.375,41.25" id="Line-6-Copy-2" stroke="#4CA7E2" fill="#FFFFFF" stroke-linecap="square"></path>
                            <rect id="Rectangle" fill="#4CA7E2" x="0" y="0" width="75" height="3.75"></rect>
                            <rect id="Rectangle-Copy-13" fill="#4CA7E2" x="71.25" y="1.25" width="3.75" height="41.25"></rect>
                            <rect id="Rectangle" fill="#4CA7E2" x="0" y="1.25" width="3.75" height="41.25"></rect>
                        </g>
                        <g id="Group-16">
                            <path d="M3.81172771,29.0749365 L3.81172771,65.75 L59.0617277,65.75 L59.0617277,4.51938099 L3.81172771,29.0749365 Z" id="Rectangle" stroke="#4CA7E2" fill="#FFFFFF"></path>
                            <g id="Line-5-+-Line-5-Copy-+-Line-5-Copy-2-+-Line-6-Mask" transform="translate(15.000000, 30.000000)">
                                <mask id="mask-2" fill="white">
                                    <use xlink:href="#path-1"></use>
                                </mask>
                                <path stroke="#4CA7E2" d="M0.5,35.75 L33.25,35.75 L33.25,4 C33.25,2.06700338 31.6829966,0.5 29.75,0.5 L4,0.5 C2.06700338,0.5 0.5,2.06700338 0.5,4 L0.5,35.75 Z"></path>
                                <path d="M-1.25,3.125 L35.1968669,3.125" id="Line-5" stroke="#4CA7E2" stroke-linecap="square" mask="url(#mask-2)"></path>
                                <path d="M-1.25,5.625 L35.1968669,5.625" id="Line-5-Copy" stroke="#4CA7E2" stroke-linecap="square" mask="url(#mask-2)"></path>
                                <path d="M-1.25,8.125 L35.1968669,8.125" id="Line-5-Copy-2" stroke="#4CA7E2" stroke-linecap="square" mask="url(#mask-2)"></path>
                                <path d="M-1.25,10.625 L35,10.625" id="Line-5-Copy-3" stroke="#4CA7E2" stroke-linecap="square" mask="url(#mask-2)"></path>
                                <path d="M14.375,11.875 L19.375,11.875" id="Line-6-Copy" stroke="#4CA7E2" stroke-linecap="square" mask="url(#mask-2)"></path>
                            </g>
                            <polygon id="Rectangle" fill="#4CA7E2" transform="translate(30.202040, 14.375462) rotate(-24.000000) translate(-30.202040, -14.375462) " points="-2.24290863 13.1659419 62.6469882 13.0849815 61.4978706 15.6659419 -2.24290863 15.6659419"></polygon>
                        </g>
                    </g>
                </g>
            </g>
        </g>
    </g>
</svg>