<?xml version="1.0" encoding="UTF-8"?>
<svg width="287px" height="141px" viewBox="0 0 287 141" version="1.1" xmlns="http://www.w3.org/2000/svg" xmlns:xlink="http://www.w3.org/1999/xlink">
    <!-- Generator: Sketch 52.5 (67469) - http://www.bohemiancoding.com/sketch -->
    <title>cloture</title>
    <desc>Created with Sketch.</desc>
    <defs>
        <path d="M0.624268147,20.8944631 L29.5856211,0.795172119 C29.9284828,0.557224793 30.3830626,0.557224793 30.7259243,0.795172119 L59.6872773,20.8944631 C59.9565286,21.0813246 60.1171257,21.3882627 60.1171257,21.7160026 L60.1171257,88.3711168 L0.194419741,88.3711168 L0.194419741,21.7160026 C0.194419741,21.3882627 0.355016856,21.0813246 0.624268147,20.8944631 Z" id="path-1"></path>
    </defs>
    <g id="Page-1" stroke="none" stroke-width="1" fill="none" fill-rule="evenodd">
        <g id="Page-choix" transform="translate(-80.000000, -674.000000)">
            <g id="Clôture" transform="translate(43.000000, 607.000000)">
                <g id="cloture" transform="translate(37.000000, 67.000000)">
                    <path d="M232.448338,92.3400414 C288.896677,25.6800828 362,-55.5536835 99,54.7231583 C89.2061744,58.8297444 80.2485495,62.7750855 72.0813435,66.5620536 C-139.070772,164.469014 178.102073,156.517658 232.448338,92.3400414 Z" id="Oval-Copy-3" fill-opacity="0.163977582" fill="#0081D5"></path>
                    <g id="Group-9" opacity="0.9" transform="translate(112.000000, 6.000000)">
                        <g id="Group-7-Copy-4" transform="translate(5.681818, 0.000000)">
                            <g id="Group-5-Copy-4" transform="translate(0.000000, 0.011445)">
                                <g id="Group" transform="translate(4.905385, 9.162649)">
                                    <mask id="mask-2" fill="white">
                                        <use xlink:href="#path-1"></use>
                                    </mask>
                                    <path stroke="#B2D9F3" d="M0.694419741,87.8711168 L59.6171257,87.8711168 L59.6171257,21.7160026 C59.6171257,21.5521327 59.5368271,21.3986636 59.4022015,21.3052329 L30.4408485,1.20594187 C30.2694177,1.08696821 30.0421277,1.08696821 29.8706969,1.20594187 L0.909343944,21.3052329 C0.774718299,21.3986636 0.694419741,21.5521327 0.694419741,21.7160026 L0.694419741,87.8711168 Z"></path>
                                    <g id="Group-3" mask="url(#mask-2)" fill="#FFFFFF" stroke="#B2D9F3">
                                        <g transform="translate(14.728863, 58.902745)" id="Rectangle">
                                            <path d="M7.63972666,25.8149926 L23.2140921,25.8149926 L23.2140921,9.1031515 C23.2140921,4.80240923 19.7276517,1.31596876 15.4269094,1.31596876 C11.1261671,1.31596876 7.63972666,4.80240923 7.63972666,9.1031515 L7.63972666,25.8149926 Z"></path>
                                            <path d="M0.627495119,28.9683718 L29.5888481,28.9683718 L29.5888481,27.3685671 C29.5888481,25.9878552 28.46956,24.8685671 27.0888481,24.8685671 L3.12749512,24.8685671 C1.74678324,24.8685671 0.627495119,25.9878552 0.627495119,27.3685671 L0.627495119,28.9683718 Z"></path>
                                        </g>
                                    </g>
                                    <g id="Group-10" mask="url(#mask-2)" fill="#FFFFFF" stroke="#B2D9F3">
                                        <g transform="translate(5.294225, 32.273264)">
                                            <path d="M3.04990238,12.8869875 L18.6242679,12.8869875 L18.6242679,8.28718274 C18.6242679,3.98644047 15.1378274,0.5 10.8370851,0.5 C6.53634285,0.5 3.04990238,3.98644047 3.04990238,8.28718274 L3.04990238,12.8869875 Z" id="Rectangle-Copy"></path>
                                            <rect id="Rectangle-Copy-12" x="0.5" y="11.3370851" width="20.0366946" height="3.69182038" rx="1.84591019"></rect>
                                        </g>
                                    </g>
                                    <g id="Group-12" mask="url(#mask-2)" fill="#FFFFFF" stroke="#B2D9F3">
                                        <g transform="translate(33.980626, 32.273264)">
                                            <path d="M3.04990238,12.8869875 L18.6242679,12.8869875 L18.6242679,8.28718274 C18.6242679,3.98644047 15.1378274,0.5 10.8370851,0.5 C6.53634285,0.5 3.04990238,3.98644047 3.04990238,8.28718274 L3.04990238,12.8869875 Z" id="Rectangle-Copy-3"></path>
                                            <rect id="Rectangle-Copy-11" x="0.5" y="11.3370851" width="20.0366946" height="3.69182038" rx="1.84591019"></rect>
                                        </g>
                                    </g>
                                </g>
                                <path d="M0.963614618,24.9464646 C0.767674237,25.0848087 0.697579298,25.342804 0.796575114,25.5612795 L2.50399581,29.3294145 C2.51730085,29.3587777 2.53341442,29.3867852 2.5521115,29.4130461 C2.71227144,29.6379981 3.02446635,29.6905225 3.24941836,29.5303626 L34.1911721,7.50064392 C34.7119123,7.12989047 35.4104031,7.12989047 35.9311434,7.50064392 L66.8728971,29.5303626 C66.899158,29.5490596 66.9271656,29.5651732 66.9565287,29.5784782 C67.2080542,29.6924497 67.5043482,29.5809401 67.6183196,29.3294145 L69.3257403,25.5612795 C69.4247362,25.342804 69.3546412,25.0848087 69.1587008,24.9464646 L35.3495455,1.07544581 C35.1766618,0.953380879 34.9456537,0.953380879 34.7727699,1.07544581 L0.963614618,24.9464646 Z" id="Rectangle" stroke="#B2D9F3" fill="#FFFFFF"></path>
                            </g>
                        </g>
                        <g id="Group-7" transform="translate(0.000000, 56.818182)">
                            <rect id="Rectangle" fill="#4CA7E2" x="0" y="20.4545455" width="79.5454545" height="4.54545455"></rect>
                            <rect id="Rectangle-Copy-16" fill="#4CA7E2" x="0" y="30.6818182" width="79.5454545" height="4.54545455"></rect>
                            <path d="M0.319081763,8.31771363 L4.00089994,2.60713849 C4.5994385,1.67879298 5.83722259,1.41143162 6.7655681,2.00997017 C7.00486103,2.16425114 7.20845545,2.36784556 7.36273642,2.60713849 L11.0445546,8.31771363 C11.2528554,8.64079245 11.3636364,9.017056 11.3636364,9.40146355 L11.3636364,43.1818182 L0,43.1818182 L-1.22124533e-14,9.40146355 C-1.22595296e-14,9.017056 0.110780942,8.64079245 0.319081763,8.31771363 Z" id="Rectangle" fill="#0081D5"></path>
                            <path d="M17.3645363,8.31771363 L21.0463545,2.60713849 C21.644893,1.67879298 22.8826771,1.41143162 23.8110226,2.00997017 C24.0503156,2.16425114 24.25391,2.36784556 24.408191,2.60713849 L28.0900091,8.31771363 C28.29831,8.64079245 28.4090909,9.017056 28.4090909,9.40146355 L28.4090909,43.1818182 L17.0454545,43.1818182 L17.0454545,9.40146355 C17.0454545,9.017056 17.1562355,8.64079245 17.3645363,8.31771363 Z" id="Rectangle-Copy-5" fill="#0081D5"></path>
                            <path d="M34.4099909,8.31771363 L38.091809,2.60713849 C38.6903476,1.67879298 39.9281317,1.41143162 40.8564772,2.00997017 C41.0957701,2.16425114 41.2993645,2.36784556 41.4536455,2.60713849 L45.1354637,8.31771363 C45.3437645,8.64079245 45.4545455,9.017056 45.4545455,9.40146355 L45.4545455,43.1818182 L34.0909091,43.1818182 L34.0909091,9.40146355 C34.0909091,9.017056 34.20169,8.64079245 34.4099909,8.31771363 Z" id="Rectangle-Copy-10" fill="#0081D5"></path>
                            <path d="M51.4554454,8.31771363 L55.1372636,2.60713849 C55.7358021,1.67879298 56.9735862,1.41143162 57.9019317,2.00997017 C58.1412247,2.16425114 58.3448191,2.36784556 58.4991001,2.60713849 L62.1809182,8.31771363 C62.3892191,8.64079245 62.5,9.017056 62.5,9.40146355 L62.5,43.1818182 L51.1363636,43.1818182 L51.1363636,9.40146355 C51.1363636,9.017056 51.2471446,8.64079245 51.4554454,8.31771363 Z" id="Rectangle-Copy-14" fill="#0081D5"></path>
                            <path d="M68.5008999,8.31771363 L72.1827181,2.60713849 C72.7812567,1.67879298 74.0190408,1.41143162 74.9473863,2.00997017 C75.1866792,2.16425114 75.3902736,2.36784556 75.5445546,2.60713849 L79.2263728,8.31771363 C79.4346736,8.64079245 79.5454545,9.017056 79.5454545,9.40146355 L79.5454545,43.1818182 L68.1818182,43.1818182 L68.1818182,9.40146355 C68.1818182,9.017056 68.2925991,8.64079245 68.5008999,8.31771363 Z" id="Rectangle-Copy-15" fill="#0081D5"></path>
                        </g>
                    </g>
                </g>
            </g>
        </g>
    </g>
</svg>