<?xml version="1.0" encoding="UTF-8"?>
<svg width="176px" height="120px" viewBox="0 0 176 120" version="1.1" xmlns="http://www.w3.org/2000/svg" xmlns:xlink="http://www.w3.org/1999/xlink">
    <!-- Generator: Sketch 52.5 (67469) - http://www.bohemiancoding.com/sketch -->
    <title>division-fonciere</title>
    <desc>Created with Sketch.</desc>
    <g id="Page-1" stroke="none" stroke-width="1" fill="none" fill-rule="evenodd" opacity="0.9">
        <g id="Page-choix" transform="translate(-552.000000, -687.000000)">
            <g id="Group-13" transform="translate(448.000000, 607.000000)">
                <g id="division-fonciere" transform="translate(104.000000, 80.000000)">
                    <rect id="Rectangle-Copy-21" stroke="#FFFFFF" fill="#D9ECF9" x="97.3888889" y="68.9444444" width="78.1111111" height="50.5555556"></rect>
                    <rect id="Rectangle-Copy-22" stroke="#FFFFFF" fill="#D9ECF9" x="97.3888889" y="18.2777778" width="78.1111111" height="50.5555556"></rect>
                    <rect id="Rectangle-Copy-23" stroke="#FFFFFF" fill="#D9ECF9" x="19.1666667" y="68.9444444" width="78.1111111" height="50.5555556"></rect>
                    <path d="M3.36871583,6.01295082 L3.4124508,56.8630855 L81.604144,56.9298755 L81.5604091,6.07974082 L3.36871583,6.01295082 Z" id="Rectangle-Copy-24" stroke="#FFFFFF" fill="#D9ECF9" transform="translate(42.486430, 31.471413) rotate(-7.000000) translate(-42.486430, -31.471413) "></path>
                    <g id="Group-15-Copy-3" transform="translate(114.666667, 15.111111)" stroke="#0081D5">
                        <g id="Group-Copy-3">
                            <polygon id="Path-11" fill="#FFFFFF" points="40.6675939 36.4202032 4.48424355 36.4202032 1.75342466 29.5026455 41.691651 29.5026455"></polygon>
                            <path d="M15.2247249,30.833157 L14.5931691,29.317785 C13.9098439,27.6781959 12.3077468,26.6102293 10.5314625,26.6102293 L10.5314625,26.6102293 C9.57835328,26.6102293 8.80570559,27.382877 8.80570559,28.3359862 C8.80570559,28.6293279 8.88047918,28.9178284 9.02296451,29.1742408 L9.94480471,30.833157 L15.2247249,30.833157 Z" id="Path-12"></path>
                            <path d="M24.5697743,36.3860452 L24.2820304,33.8610782 C24.1117357,32.3667344 22.8471724,31.2380952 21.3431564,31.2380952 L21.3431564,31.2380952 C20.0418639,31.2380952 18.9869579,32.2930013 18.9869579,33.5942938 C18.9869579,33.683437 18.9920168,33.7725083 19.0021102,33.8610782 L19.2898541,36.3860452 L24.5697743,36.3860452 Z" id="Path-13"></path>
                            <path d="M33.7753425,30.833157 L28.0547945,30.833157 L28.2733141,29.8652857 C28.7030364,27.961951 30.3939638,26.6102293 32.3452055,26.6102293 L32.3452055,26.6102293 C33.535162,26.6102293 34.4998124,27.5748797 34.4998124,28.7648362 C34.4998124,29.070601 34.434733,29.372864 34.3088996,29.6515359 L33.7753425,30.833157 Z" id="Path-14"></path>
                            <polygon id="Path-9" fill="#4CA7E2" points="41.9429683 0.576463145 42.625673 10.208805 42.625673 29.2112001 0.438363102 29.2112001 1.32203718 10.208805 3.07407725 0.576463145"></polygon>
                            <path d="M42.5825605,10.3643997 L1.53910125,10.3643997" id="Path-10" fill="#4CA7E2"></path>
                        </g>
                    </g>
                </g>
            </g>
        </g>
    </g>
</svg>