<?xml version="1.0" encoding="UTF-8"?>
<svg width="323px" height="157px" viewBox="0 0 323 157" version="1.1" xmlns="http://www.w3.org/2000/svg" xmlns:xlink="http://www.w3.org/1999/xlink">
    <!-- Generator: Sketch 52.5 (67469) - http://www.bohemiancoding.com/sketch -->
    <title>exterieur</title>
    <desc>Created with Sketch.</desc>
    <defs>
        <path d="M0.624637064,20.9346771 L29.6428427,0.795930154 C29.9857044,0.557982828 30.4402842,0.557982828 30.7831459,0.795930154 L59.8013515,20.9346771 C60.0706028,21.1215386 60.2311999,21.4284767 60.2311999,21.7562166 L60.2311999,88.538804 L0.194788659,88.538804 L0.194788659,21.7562166 C0.194788659,21.4284767 0.355385774,21.1215386 0.624637064,20.9346771 Z" id="path-1"></path>
    </defs>
    <g id="Page-1" stroke="none" stroke-width="1" fill="none" fill-rule="evenodd" opacity="0.9">
        <g id="Page-choix" transform="translate(-508.000000, -344.000000)">
            <g id="Exterieur" transform="translate(448.000000, 257.000000)">
                <g id="exterieur" transform="translate(60.000000, 87.000000)">
                    <path d="M329.622854,109.640634 C426.122854,65.056317 297.122854,-19.4495298 198.122854,4.0504702 C99.1228538,27.5504702 20.6228538,2.0504702 2.12285376,48.0504702 C-16.3771462,94.0504702 92.1228538,85.0504702 92.1228538,122.05047 C92.1228538,182.739791 233.122854,154.224951 329.622854,109.640634 Z" id="Oval-Copy" fill-opacity="0.163977582" fill="#0081D5"></path>
                    <g id="Group-7-Copy-3" transform="translate(96.000000, 9.000000)">
                        <g id="Group-5-Copy-4" transform="translate(0.000000, 0.011467)">
                            <g id="Group" transform="translate(4.914693, 9.180036)">
                                <mask id="mask-2" fill="white">
                                    <use xlink:href="#path-1"></use>
                                </mask>
                                <path stroke="#B2D9F3" fill="#ffffff" d="M0.694788659,88.038804 L59.7311999,88.038804 L59.7311999,21.7562166 C59.7311999,21.5923467 59.6509014,21.4388776 59.5162757,21.3454469 L30.4980701,1.20669991 C30.3266393,1.08772624 30.0993493,1.08772624 29.9279185,1.20669991 L0.909712862,21.3454469 C0.775087217,21.4388776 0.694788659,21.5923467 0.694788659,21.7562166 L0.694788659,88.038804 Z"></path>
                                <g id="Group-3" mask="url(#mask-2)" fill="#FFFFFF" stroke="#B2D9F3">
                                    <g transform="translate(14.756812, 59.014515)" id="Rectangle">
                                        <path d="M7.65327453,25.8649261 L23.2590904,25.8649261 L23.2590904,9.12042503 C23.2590904,4.81099797 19.7656095,1.31751709 15.4561825,1.31751709 C11.1467554,1.31751709 7.65327453,4.81099797 7.65327453,9.12042503 L7.65327453,25.8649261 Z"></path>
                                        <path d="M0.627737045,29.0242891 L29.6459427,29.0242891 L29.6459427,27.4148072 C29.6459427,26.0340954 28.5266545,24.9148072 27.1459427,24.9148072 L3.12773705,24.9148072 C1.74702517,24.9148072 0.627737045,26.0340954 0.627737045,27.4148072 L0.627737045,29.0242891 Z"></path>
                                    </g>
                                </g>
                                <g id="Group-10" mask="url(#mask-2)" fill="#FFFFFF" stroke="#B2D9F3">
                                    <g transform="translate(5.304270, 32.334504)">
                                        <path d="M3.0547409,12.9123897 L18.6605568,12.9123897 L18.6605568,8.30290794 C18.6605568,3.99348088 15.1670759,0.5 10.8576488,0.5 C6.54822179,0.5 3.0547409,3.99348088 3.0547409,8.30290794 L3.0547409,12.9123897 Z" id="Rectangle-Copy"></path>
                                        <rect id="Rectangle-Copy-12" x="0.5" y="11.3576488" width="20.0766125" height="3.70072326" rx="1.85036163"></rect>
                                    </g>
                                </g>
                                <g id="Group-12" mask="url(#mask-2)" fill="#FFFFFF" stroke="#B2D9F3">
                                    <g transform="translate(34.045106, 32.334504)">
                                        <path d="M3.0547409,12.9123897 L18.6605568,12.9123897 L18.6605568,8.30290794 C18.6605568,3.99348088 15.1670759,0.5 10.8576488,0.5 C6.54822179,0.5 3.0547409,3.99348088 3.0547409,8.30290794 L3.0547409,12.9123897 Z" id="Rectangle-Copy-3"></path>
                                        <rect id="Rectangle-Copy-11" x="0.5" y="11.3576488" width="20.0766125" height="3.70072326" rx="1.85036163"></rect>
                                    </g>
                                </g>
                            </g>
                            <path d="M0.963614618,24.9939309 C0.767674237,25.132275 0.697579298,25.3902704 0.796575114,25.6087459 L2.50883433,29.3875591 C2.52213937,29.4169222 2.53825294,29.4449298 2.55695002,29.4711907 C2.71710996,29.6961427 3.02930488,29.748667 3.25425688,29.5885071 L34.2577018,7.51486596 C34.778442,7.14411252 35.4769328,7.14411252 35.9976731,7.51486596 L67.001118,29.5885071 C67.0273789,29.6072042 67.0553865,29.6233178 67.0847496,29.6366228 C67.3362751,29.7505943 67.6325691,29.6390847 67.7465405,29.3875591 L69.4587998,25.6087459 C69.5577956,25.3902704 69.4877006,25.132275 69.2917603,24.9939309 L35.4160753,1.07593872 C35.2431915,0.953873784 35.0121834,0.953873784 34.8392996,1.07593872 L0.963614618,24.9939309 Z" id="Rectangle" stroke="#B2D9F3" fill="#FFFFFF"></path>
                        </g>
                        <g id="Group-6" transform="translate(7.000000, 28.000000)" stroke="#0081D5" stroke-linecap="square">
                            <path d="M18.1344025,0.655716832 L18.1344025,32.291925" id="Line-Copy-2"></path>
                            <path d="M39.1173412,0.655716832 L39.1173412,32.291925" id="Line-Copy-3"></path>
                            <path d="M0.538439745,32.6540789 L56.6219559,32.6540789" id="Line-2-Copy-2" stroke-width="3"></path>
                            <path d="M19.7609639,12.9825739 L37.3559084,12.9825739" id="Line-2-Copy-3" stroke-width="3"></path>
                            <path d="M18.1344025,3.48296343 L39.1173412,3.48296343" id="Line-3-Copy-3"></path>
                            <path d="M18.3600713,8.72869809 L39.1173412,8.72869809" id="Line-3-Copy-4"></path>
                            <path d="M18.3600713,27.0887694 L39.1173412,27.0887694" id="Line-3-Copy-5"></path>
                            <path d="M19.0157881,3.68983514 L38.6872931,26.3438689" id="Line-4-Copy"></path>
                        </g>
                    </g>
                </g>
            </g>
        </g>
    </g>
</svg>