<?xml version="1.0" encoding="UTF-8"?>
<svg width="119px" height="127px" viewBox="0 0 119 127" version="1.1" xmlns="http://www.w3.org/2000/svg" xmlns:xlink="http://www.w3.org/1999/xlink">
    <!-- Generator: Sketch 52.5 (67469) - http://www.bohemiancoding.com/sketch -->
    <title>multi-travaux</title>
    <desc>Created with Sketch.</desc>
    <defs>
        <path d="M0.531284792,10.7587859 L15.163295,0.604114216 C15.5061567,0.36616689 15.9607366,0.36616689 16.3035982,0.604114216 L30.9356085,10.7587859 C31.2048598,10.9456474 31.3654569,11.2525855 31.3654569,11.5803254 L31.3654569,46.1066696 L0.101436387,46.1066696 L0.101436387,11.5803254 C0.101436387,11.2525855 0.262033502,10.9456474 0.531284792,10.7587859 Z" id="path-1"></path>
        <path d="M0.546721601,12.4414797 L17.557645,0.635833057 C17.9005066,0.397885731 18.3550865,0.397885731 18.6979482,0.635833057 L35.7088715,12.4414797 C35.9781228,12.6283411 36.13872,12.9352793 36.13872,13.2630192 L36.13872,53.1232824 L0.116873196,53.1232824 L0.116873196,13.2630192 C0.116873196,12.9352793 0.27747031,12.6283411 0.546721601,12.4414797 Z" id="path-3"></path>
        <path d="M4,0 L18.7295918,0 C20.9387308,-2.36792184e-15 22.7295918,1.790861 22.7295918,4 L22.7295918,24.4132653 L0,24.4132653 L0,4 C-2.705415e-16,1.790861 1.790861,4.05812251e-16 4,0 Z" id="path-5"></path>
    </defs>
    <g id="Page-1" stroke="none" stroke-width="1" fill="none" fill-rule="evenodd">
        <g id="Page-choix" transform="translate(-979.000000, -672.000000)">
            <g id="Group-14" transform="translate(854.000000, 607.000000)">
                <g id="multi-travaux" transform="translate(125.000000, 65.000000)">
                    <circle id="Oval" stroke="#4CA7E2" fill="#FFFFFF" cx="67" cy="70" r="40"></circle>
                    <g id="Group-9-Copy-2" opacity="0.9" transform="translate(55.000000, 0.000000)">
                        <g id="Group-7-Copy-4" transform="translate(2.964427, 0.000000)">
                            <g id="Group-5-Copy-4" transform="translate(0.000000, 0.005971)">
                                <g id="Group" transform="translate(2.559331, 4.780513)">
                                    <mask id="mask-2" fill="white">
                                        <use xlink:href="#path-1"></use>
                                    </mask>
                                    <path stroke="#B2D9F3" d="M0.601436387,45.6066696 L30.8654569,45.6066696 L30.8654569,11.5803254 C30.8654569,11.4164555 30.7851583,11.2629864 30.6505327,11.1695557 L16.0185224,1.01488397 C15.8470916,0.895910305 15.6198017,0.895910305 15.4483708,1.01488397 L0.816360589,11.1695557 C0.681734944,11.2629864 0.601436387,11.4164555 0.601436387,11.5803254 L0.601436387,45.6066696 Z"></path>
                                    <g id="Group-3" mask="url(#mask-2)" fill="#FFFFFF" stroke="#B2D9F3">
                                        <g transform="translate(7.684624, 30.731867)" id="Rectangle">
                                            <path d="M4.22507478,13.2295613 L11.8725698,13.2295613 L11.8725698,4.74947035 C11.8725698,2.63767291 10.1606197,0.925722832 8.0488223,0.925722832 C5.93702486,0.925722832 4.22507478,2.63767291 4.22507478,4.74947035 L4.22507478,13.2295613 Z"></path>
                                            <path d="M0.624660654,14.8748027 L15.140388,14.8748027 C14.9147879,13.9225237 14.059013,13.214035 13.0377617,13.214035 L2.72728689,13.214035 C1.70603563,13.214035 0.850260769,13.9225237 0.624660654,14.8748027 Z"></path>
                                        </g>
                                    </g>
                                    <g id="Group-10" mask="url(#mask-2)" fill="#FFFFFF" stroke="#B2D9F3">
                                        <g transform="translate(2.762204, 16.838225)">
                                            <path d="M1.83038385,6.48451522 L9.47787888,6.48451522 L9.47787888,4.32374751 C9.47787888,2.21195007 7.7659288,0.5 5.65413136,0.5 C3.54233393,0.5 1.83038385,2.21195007 1.83038385,4.32374751 L1.83038385,6.48451522 Z" id="Rectangle-Copy"></path>
                                            <rect id="Rectangle-Copy-12" x="0.5" y="6.15413136" width="9.97566677" height="1.44790628" rx="0.723953142"></rect>
                                        </g>
                                    </g>
                                    <g id="Group-12" mask="url(#mask-2)" fill="#FFFFFF" stroke="#B2D9F3">
                                        <g transform="translate(17.729022, 16.838225)">
                                            <path d="M1.83038385,6.48451522 L9.47787888,6.48451522 L9.47787888,4.32374751 C9.47787888,2.21195007 7.7659288,0.5 5.65413136,0.5 C3.54233393,0.5 1.83038385,2.21195007 1.83038385,4.32374751 L1.83038385,6.48451522 Z" id="Rectangle-Copy-3"></path>
                                            <rect id="Rectangle-Copy-11" x="0.5" y="6.15413136" width="9.97566677" height="1.44790628" rx="0.723953142"></rect>
                                        </g>
                                    </g>
                                </g>
                                <path d="M0.963614618,12.9828845 C0.767674237,13.1212285 0.697579298,13.3792239 0.796575114,13.5976994 L1.28447728,14.6744588 C1.29778232,14.7038219 1.31389589,14.7318294 1.33259297,14.7580904 C1.49275291,14.9830424 1.80494782,15.0355667 2.02989983,14.8754068 L17.4227923,3.91607031 C17.9435326,3.54531686 18.6420233,3.54531686 19.1627636,3.91607031 L34.5556561,14.8754068 C34.581917,14.8941039 34.6099245,14.9102174 34.6392876,14.9235225 C34.8908132,15.037494 35.1871071,14.9259843 35.3010786,14.6744588 L35.7889808,13.5976994 C35.8879766,13.3792239 35.8178817,13.1212285 35.6219413,12.9828845 L18.5811658,0.951212307 C18.408282,0.829147374 18.1772739,0.829147374 18.0043901,0.951212307 L0.963614618,12.9828845 Z" id="Rectangle" stroke="#B2D9F3" fill="#FFFFFF"></path>
                            </g>
                        </g>
                        <g id="Group-7" transform="translate(0.000000, 35.000000)">
                            <rect id="Rectangle" fill="#4CA7E2" x="0.869565217" y="8.69565217" width="37.5320934" height="1.50197628"></rect>
                            <rect id="Rectangle-Copy-16" fill="#4CA7E2" x="0.91544783" y="12.5296443" width="37.5320934" height="1.50197628"></rect>
                            <path d="M0.319081763,2.87688117 L1.08695652,1.68589175 C1.47399818,1.08558224 2.27440445,0.912694483 2.87471396,1.29973614 C3.02945141,1.39950108 3.16110463,1.53115429 3.26086957,1.68589175 L4.02874432,2.87688117 C4.23704515,3.19995999 4.34782609,3.57622354 4.34782609,3.96063109 L4.34782609,16.5217391 L0,16.5217391 L2.22044605e-15,3.96063109 C2.1733697e-15,3.57622354 0.110780942,3.19995999 0.319081763,2.87688117 Z" id="Rectangle" fill="#0081D5"></path>
                            <path d="M9.2123624,2.87688117 L9.98023715,1.68589175 C10.3672788,1.08558224 11.1676851,0.912694483 11.7679946,1.29973614 C11.922732,1.39950108 12.0543853,1.53115429 12.1541502,1.68589175 L12.922025,2.87688117 C13.1303258,3.19995999 13.2411067,3.57622354 13.2411067,3.96063109 L13.2411067,16.5217391 L8.89328063,16.5217391 L8.89328063,3.96063109 C8.89328063,3.57622354 9.00406157,3.19995999 9.2123624,2.87688117 Z" id="Rectangle-Copy-5" fill="#0081D5"></path>
                            <path d="M18.105643,2.87688117 L18.8735178,1.68589175 C19.2605594,1.08558224 20.0609657,0.912694483 20.6612752,1.29973614 C20.8160127,1.39950108 20.9476659,1.53115429 21.0474308,1.68589175 L21.8153056,2.87688117 C22.0236064,3.19995999 22.1343874,3.57622354 22.1343874,3.96063109 L22.1343874,16.5217391 L17.7865613,16.5217391 L17.7865613,3.96063109 C17.7865613,3.57622354 17.8973422,3.19995999 18.105643,2.87688117 Z" id="Rectangle-Copy-10" fill="#0081D5"></path>
                            <path d="M26.9989237,2.87688117 L27.7667984,1.68589175 C28.1538401,1.08558224 28.9542463,0.912694483 29.5545559,1.29973614 C29.7092933,1.39950108 29.8409465,1.53115429 29.9407115,1.68589175 L30.7085862,2.87688117 C30.916887,3.19995999 31.027668,3.57622354 31.027668,3.96063109 L31.027668,16.5217391 L26.6798419,16.5217391 L26.6798419,3.96063109 C26.6798419,3.57622354 26.7906228,3.19995999 26.9989237,2.87688117 Z" id="Rectangle-Copy-14" fill="#0081D5"></path>
                            <path d="M35.8922043,2.87688117 L36.6600791,1.68589175 C37.0471207,1.08558224 37.847527,0.912694483 38.4478365,1.29973614 C38.6025739,1.39950108 38.7342272,1.53115429 38.8339921,1.68589175 L39.6018669,2.87688117 C39.8101677,3.19995999 39.9209486,3.57622354 39.9209486,3.96063109 L39.9209486,16.5217391 L35.5731225,16.5217391 L35.5731225,3.96063109 C35.5731225,3.57622354 35.6839035,3.19995999 35.8922043,2.87688117 Z" id="Rectangle-Copy-15" fill="#0081D5"></path>
                        </g>
                    </g>
                    <g id="Group-7-Copy-5" opacity="0.9" transform="translate(77.000000, 68.000000)">
                        <g id="Group-5-Copy-4" transform="translate(0.000000, 0.006880)">
                            <g id="Group" transform="translate(2.948816, 5.508021)">
                                <mask id="mask-4" fill="white">
                                    <use xlink:href="#path-3"></use>
                                </mask>
                                <path stroke="#B2D9F3" d="M0.616873196,52.6232824 L35.63872,52.6232824 L35.63872,13.2630192 C35.63872,13.0991492 35.5584214,12.9456802 35.4237957,12.8522494 L18.4128724,1.04660281 C18.2414415,0.927629147 18.0141516,0.927629147 17.8427208,1.04660281 L0.831797398,12.8522494 C0.697171753,12.9456802 0.616873196,13.0991492 0.616873196,13.2630192 L0.616873196,52.6232824 Z"></path>
                                <g id="Group-3" mask="url(#mask-4)" fill="#FFFFFF" stroke="#B2D9F3">
                                    <g transform="translate(8.854087, 35.408709)" id="Rectangle">
                                        <path d="M4.79196472,15.3189557 L13.7554542,15.3189557 L13.7554542,5.47225502 C13.7554542,2.99705573 11.7489088,0.990510254 9.27370948,0.990510254 C6.7985102,0.990510254 4.79196472,2.99705573 4.79196472,5.47225502 L4.79196472,15.3189557 Z"></path>
                                        <path d="M0.61423359,17.2145734 L17.5499742,17.2145734 C17.3443861,16.0408857 16.3201449,15.1488843 15.0875656,15.1488843 L3.07664223,15.1488843 C1.84406291,15.1488843 0.819821687,16.0408857 0.61423359,17.2145734 Z"></path>
                                    </g>
                                </g>
                                <g id="Group-10" mask="url(#mask-4)" fill="#FFFFFF" stroke="#B2D9F3">
                                    <g transform="translate(3.182562, 19.400702)">
                                        <path d="M2.03284454,7.54743385 L10.9963341,7.54743385 L10.9963341,4.98174476 C10.9963341,2.50654548 8.98978859,0.5 6.51458931,0.5 C4.03939002,0.5 2.03284454,2.50654548 2.03284454,4.98174476 L2.03284454,7.54743385 Z" id="Rectangle-Copy"></path>
                                        <rect id="Rectangle-Copy-12" x="0.5" y="7.01458931" width="11.6459675" height="1.82043396" rx="0.910216979"></rect>
                                    </g>
                                </g>
                                <g id="Group-12" mask="url(#mask-4)" fill="#FFFFFF" stroke="#B2D9F3">
                                    <g transform="translate(20.427063, 19.400702)">
                                        <path d="M2.03284454,7.54743385 L10.9963341,7.54743385 L10.9963341,4.98174476 C10.9963341,2.50654548 8.98978859,0.5 6.51458931,0.5 C4.03939002,0.5 2.03284454,2.50654548 2.03284454,4.98174476 L2.03284454,7.54743385 Z" id="Rectangle-Copy-3"></path>
                                        <rect id="Rectangle-Copy-11" x="0.5" y="7.01458931" width="11.6459675" height="1.82043396" rx="0.910216979"></rect>
                                    </g>
                                </g>
                            </g>
                            <path d="M0.963614618,14.969041 C0.767674237,15.1073851 0.697579298,15.3653804 0.796575114,15.583856 L1.48693797,17.1074292 C1.50024301,17.1367923 1.51635658,17.1647999 1.53505366,17.1910608 C1.6952136,17.4160128 2.00740852,17.4685371 2.23236052,17.3083772 L20.2066268,4.51117013 C20.7273671,4.14041668 21.4258579,4.14041668 21.9465981,4.51117013 L39.9208644,17.3083772 C39.9471253,17.3270743 39.9751329,17.3431878 40.004496,17.3564929 C40.2560216,17.4704644 40.5523155,17.3589547 40.666287,17.1074292 L41.3566498,15.583856 C41.4556456,15.3653804 41.3855507,15.1073851 41.1896103,14.969041 L21.3650003,0.971837169 C21.1921165,0.849772236 20.9611084,0.849772236 20.7882246,0.971837169 L0.963614618,14.969041 Z" id="Rectangle" stroke="#B2D9F3" fill="#FFFFFF"></path>
                        </g>
                        <g id="Group-6" transform="translate(4.200000, 16.800000)" stroke="#0081D5" stroke-linecap="square">
                            <path d="M10.8806415,0.393430099 L10.8806415,19.375155" id="Line-Copy-2"></path>
                            <path d="M23.4704047,0.393430099 L23.4704047,19.375155" id="Line-Copy-3"></path>
                            <path d="M0.323063847,19.5924473 L33.9731735,19.5924473" id="Line-2-Copy-2" stroke-width="3"></path>
                            <path d="M11.8565783,7.78954436 L22.413545,7.78954436" id="Line-2-Copy-3" stroke-width="3"></path>
                            <path d="M10.8806415,2.08977806 L23.4704047,2.08977806" id="Line-3-Copy-3"></path>
                            <path d="M11.0160428,5.23721885 L23.4704047,5.23721885" id="Line-3-Copy-4"></path>
                            <path d="M11.0160428,16.2532616 L23.4704047,16.2532616" id="Line-3-Copy-5"></path>
                            <path d="M11.4094729,2.21390108 L23.2123759,15.8063213" id="Line-4-Copy"></path>
                        </g>
                    </g>
                    <g id="Group-16-Copy-2" opacity="0.9" transform="translate(0.000000, 42.000000)">
                        <path d="M2.73034723,19.6871814 L2.73034723,44.1173469 L39.6130003,44.1173469 L39.6130003,3.29489119 L2.73034723,19.6871814 Z" id="Rectangle" stroke="#5EB0E5" fill="#FFFFFF"></path>
                        <g id="Line-5-+-Line-5-Copy-+-Line-5-Copy-2-+-Line-6-Mask" transform="translate(10.102041, 20.204082)">
                            <mask id="mask-6" fill="white">
                                <use xlink:href="#path-5"></use>
                            </mask>
                            <path stroke="#5EB0E5" d="M0.5,23.9132653 L22.2295918,23.9132653 L22.2295918,4 C22.2295918,2.06700338 20.6625885,0.5 18.7295918,0.5 L4,0.5 C2.06700338,0.5 0.5,2.06700338 0.5,4 L0.5,23.9132653 Z"></path>
                            <path d="M-0.841836735,2.10459184 L23.7040124,2.10459184" id="Line-5" stroke="#5EB0E5" stroke-linecap="square" mask="url(#mask-6)"></path>
                            <path d="M-0.841836735,3.78826531 L23.7040124,3.78826531" id="Line-5-Copy" stroke="#5EB0E5" stroke-linecap="square" mask="url(#mask-6)"></path>
                            <path d="M-0.841836735,5.47193878 L23.7040124,5.47193878" id="Line-5-Copy-2" stroke="#5EB0E5" stroke-linecap="square" mask="url(#mask-6)"></path>
                            <path d="M-0.841836735,7.15561224 L23.5714286,7.15561224" id="Line-5-Copy-3" stroke="#5EB0E5" stroke-linecap="square" mask="url(#mask-6)"></path>
                            <path d="M9.68112245,7.99744898 L13.0484694,7.99744898" id="Line-6-Copy" stroke="#5EB0E5" stroke-linecap="square" mask="url(#mask-6)"></path>
                        </g>
                        <polygon id="Rectangle" fill="#5EB0E5" transform="translate(20.340149, 9.681433) rotate(-24.000000) translate(-20.340149, -9.681433) " points="-1.5105303 8.86685883 42.1908288 8.8123345 41.4169333 10.5505323 -1.5105303 10.5505323"></polygon>
                    </g>
                </g>
            </g>
        </g>
    </g>
</svg>